<svg width="24" height="25" viewBox="0 0 24 25" fill="none" xmlns="http://www.w3.org/2000/svg">
<path d="M12 2.81439C13.751 2.81439 15.19 3.40639 16.168 3.97339C17.492 4.74039 18 6.18339 18 7.47139V9.18139C18.9071 9.75143 19.783 10.3696 20.624 11.0334C20.8235 11.2014 20.9494 11.4406 20.975 11.7001C21.0007 11.9596 20.9239 12.2188 20.7611 12.4225C20.5984 12.6262 20.3625 12.7583 20.1037 12.7906C19.845 12.8229 19.5838 12.7529 19.376 12.5954C18.9285 12.2431 18.4696 11.9056 18 11.5834V18.4004C18 19.5711 17.535 20.6938 16.7072 21.5216C15.8794 22.3493 14.7567 22.8144 13.586 22.8144H10.414C9.24333 22.8144 8.12062 22.3493 7.29283 21.5216C6.46505 20.6938 6 19.5711 6 18.4004V11.5834C5.533 11.9074 5.07 12.2404 4.625 12.5954C4.41787 12.7612 4.15337 12.8378 3.88969 12.8086C3.62602 12.7793 3.38476 12.6465 3.219 12.4394C3.05324 12.2323 2.97655 11.9678 3.00581 11.7041C3.03506 11.4404 3.16787 11.1992 3.375 11.0334C4.21632 10.37 5.09258 9.75207 6 9.18239V7.47139C6 6.18239 6.508 4.74039 7.832 3.97339C8.81 3.40639 10.25 2.81439 12 2.81439ZM16 12.2284L15.879 12.3504L15.743 12.4944C15.3133 12.9852 15.0552 13.6027 15.008 14.2534L15 14.4714V17.8144L14.995 17.9644C14.9592 18.4406 14.7542 18.8882 14.4171 19.2264C14.08 19.5646 13.6331 19.7711 13.157 19.8084L13 19.8144H11L10.85 19.8094C10.3738 19.7736 9.92617 19.5686 9.58797 19.2315C9.24977 18.8944 9.04334 18.4474 9.006 17.9714L9 17.8144V14.4714L8.993 14.2734C8.95021 13.6224 8.69639 13.0031 8.27 12.5094L8.121 12.3494L8 12.2294V18.3994L8.008 18.5914C8.05352 19.1637 8.3015 19.701 8.70745 20.1069C9.11339 20.5129 9.65072 20.7609 10.223 20.8064L10.414 20.8144H13.586L13.777 20.8064C14.3493 20.7609 14.8866 20.5129 15.2926 20.1069C15.6985 19.701 15.9465 19.1637 15.992 18.5914L16 18.4004V12.2284ZM12 8.81439C11.446 8.81439 10.716 9.00639 9.872 9.36139C9.58733 9.48206 9.301 9.61473 9.013 9.75939L8.583 9.98239L9.536 10.9354C10.4088 11.8085 10.9278 12.9736 10.993 14.2064L11 14.4714V17.8144H13V14.4714C12.9998 13.2367 13.4564 12.0455 14.282 11.1274L14.464 10.9354L15.417 9.98239C14.9971 9.75498 14.5666 9.54774 14.127 9.36139C13.285 9.00639 12.555 8.81439 12 8.81439ZM12 4.81439C10.703 4.81439 9.61 5.25439 8.835 5.70439C8.323 5.99939 8 6.63739 8 7.47039V8.03039C8.361 7.84539 8.729 7.67139 9.096 7.51639C10.034 7.12239 11.054 6.81439 12 6.81439C12.946 6.81439 13.966 7.12239 14.904 7.51739C15.271 7.67239 15.639 7.84639 16 8.03039V7.47039C16 6.63839 15.677 6.00039 15.165 5.70339C14.39 5.25439 13.297 4.81439 12 4.81439Z" fill="#A0A0A0"/>
</svg>
