<svg width="24" height="25" viewBox="0 0 24 25" fill="none" xmlns="http://www.w3.org/2000/svg">
<path d="M7 2.81439H17C17.7956 2.81439 18.5587 3.13046 19.1213 3.69307C19.6839 4.25568 20 5.01874 20 5.81439V19.8144C20 20.61 19.6839 21.3731 19.1213 21.9357C18.5587 22.4983 17.7956 22.8144 17 22.8144H7C6.20435 22.8144 5.44129 22.4983 4.87868 21.9357C4.31607 21.3731 4 20.61 4 19.8144V5.81439C4 5.01874 4.31607 4.25568 4.87868 3.69307C5.44129 3.13046 6.20435 2.81439 7 2.81439ZM7 4.81439C6.73478 4.81439 6.48043 4.91975 6.29289 5.10729C6.10536 5.29482 6 5.54918 6 5.81439V19.8144C6 20.0796 6.10536 20.334 6.29289 20.5215C6.48043 20.709 6.73478 20.8144 7 20.8144H17C17.2652 20.8144 17.5196 20.709 17.7071 20.5215C17.8946 20.334 18 20.0796 18 19.8144V5.81439C18 5.54918 17.8946 5.29482 17.7071 5.10729C17.5196 4.91975 17.2652 4.81439 17 4.81439H7ZM9 5.81439H15C15.2652 5.81439 15.5196 5.91975 15.7071 6.10729C15.8946 6.29482 16 6.54918 16 6.81439C16 7.07961 15.8946 7.33396 15.7071 7.5215C15.5196 7.70903 15.2652 7.81439 15 7.81439H9C8.73478 7.81439 8.48043 7.70903 8.29289 7.5215C8.10536 7.33396 8 7.07961 8 6.81439C8 6.54918 8.10536 6.29482 8.29289 6.10729C8.48043 5.91975 8.73478 5.81439 9 5.81439ZM9 17.8144H11C11.2652 17.8144 11.5196 17.9197 11.7071 18.1073C11.8946 18.2948 12 18.5492 12 18.8144C12 19.0796 11.8946 19.334 11.7071 19.5215C11.5196 19.709 11.2652 19.8144 11 19.8144H9C8.73478 19.8144 8.48043 19.709 8.29289 19.5215C8.10536 19.334 8 19.0796 8 18.8144C8 18.5492 8.10536 18.2948 8.29289 18.1073C8.48043 17.9197 8.73478 17.8144 9 17.8144ZM9 13.8144H15C15.2652 13.8144 15.5196 13.9197 15.7071 14.1073C15.8946 14.2948 16 14.5492 16 14.8144C16 15.0796 15.8946 15.334 15.7071 15.5215C15.5196 15.709 15.2652 15.8144 15 15.8144H9C8.73478 15.8144 8.48043 15.709 8.29289 15.5215C8.10536 15.334 8 15.0796 8 14.8144C8 14.5492 8.10536 14.2948 8.29289 14.1073C8.48043 13.9197 8.73478 13.8144 9 13.8144ZM9 9.81439H15C15.2652 9.81439 15.5196 9.91975 15.7071 10.1073C15.8946 10.2948 16 10.5492 16 10.8144C16 11.0796 15.8946 11.334 15.7071 11.5215C15.5196 11.709 15.2652 11.8144 15 11.8144H9C8.73478 11.8144 8.48043 11.709 8.29289 11.5215C8.10536 11.334 8 11.0796 8 10.8144C8 10.5492 8.10536 10.2948 8.29289 10.1073C8.48043 9.91975 8.73478 9.81439 9 9.81439Z" fill="#A0A0A0"/>
</svg>
