<svg width="24" height="25" viewBox="0 0 24 25" fill="none" xmlns="http://www.w3.org/2000/svg">
<g clip-path="url(#clip0_375_7732)">
<path fill-rule="evenodd" clip-rule="evenodd" d="M21.3345 12.0068C21.5221 12.1943 21.6274 12.4487 21.6274 12.7139C21.6274 12.9791 21.5221 13.2335 21.3345 13.421L19.2981 15.4575C18.9075 15.848 18.2744 15.848 17.8838 15.4575L17.0757 14.6493L14.319 17.406L14.1588 20.2374C14.1449 20.4827 14.0412 20.7143 13.8675 20.888L12.8492 21.9063C12.4587 22.2968 11.8256 22.2968 11.435 21.9063L7.89951 18.3707L4.36398 21.9063C3.97345 22.2968 3.34029 22.2968 2.94976 21.9063C2.55924 21.5158 2.55924 20.8826 2.94976 20.4921L6.4853 16.9565L2.94976 13.421C2.55924 13.0305 2.55924 12.3973 2.94976 12.0068L3.968 10.9885C4.14172 10.8148 4.37331 10.7111 4.61859 10.6973L7.45002 10.537L10.2067 7.7803L9.39858 6.97218C9.00805 6.58166 9.00805 5.94849 9.39858 5.55797L11.435 3.5215C11.8256 3.13097 12.4587 3.13097 12.8493 3.5215L21.3345 12.0068ZM18.591 13.3361L19.2132 12.7139L12.1422 5.64282L11.5199 6.26507L12.328 7.07319C12.7185 7.46372 12.7185 8.09688 12.328 8.48741L8.59449 12.2209C8.42077 12.3946 8.18918 12.4983 7.9439 12.5122L5.11247 12.6725L5.07108 12.7139L12.1421 19.7849L12.1835 19.7436L12.3438 16.9121C12.3577 16.6668 12.4614 16.4353 12.6351 16.2615L16.3686 12.528C16.7591 12.1375 17.3923 12.1375 17.7828 12.528L18.591 13.3361Z" fill="#A0A0A0"/>
</g>
<defs>
<clipPath id="clip0_375_7732">
<rect width="24" height="24" fill="white" transform="translate(0 0.814392)"/>
</clipPath>
</defs>
</svg>
