<svg width="24" height="25" viewBox="0 0 24 25" fill="none" xmlns="http://www.w3.org/2000/svg">
<path d="M12 20.8144V22.8144M13.2 8.81439H10.8C8.537 8.81439 7.406 8.81439 6.703 9.50639C6 10.1994 6 11.3144 6 13.5414V16.0874C6 18.3154 6 19.4294 6.703 20.1224C7.406 20.8144 8.537 20.8144 10.8 20.8144H13.2C15.463 20.8144 16.594 20.8144 17.297 20.1224C18 19.4294 18 18.3154 18 16.0874V13.5414C18 11.3144 18 10.1994 17.297 9.50639C16.594 8.81439 15.463 8.81439 13.2 8.81439Z" stroke="#A0A0A0" stroke-width="0.875" stroke-linecap="round"/>
<path d="M12 12.8144L10.5 14.8144H13.5L12 16.8144" stroke="#A0A0A0" stroke-width="0.875" stroke-linecap="round" stroke-linejoin="round"/>
<path d="M11 5.81439H13" stroke="#A0A0A0" stroke-width="0.875" stroke-linecap="round"/>
<path d="M15.5 8.81439V6.31439C15.5 4.91039 15.5 4.20739 15.163 3.70339C15.017 3.48492 14.8295 3.29735 14.611 3.15139C14.107 2.81439 13.404 2.81439 12 2.81439C10.596 2.81439 9.893 2.81439 9.389 3.15139C9.17053 3.29735 8.98296 3.48492 8.837 3.70339C8.5 4.20739 8.5 4.91039 8.5 6.31439V8.81439" stroke="#A0A0A0" stroke-width="0.875"/>
</svg>
