<svg width="24" height="25" viewBox="0 0 24 25" fill="none" xmlns="http://www.w3.org/2000/svg">
<circle cx="12" cy="12.8144" r="11.5" stroke="#A0A0A0"/>
<circle cx="11.9999" cy="12.8144" r="1.5" fill="#A0A0A0" stroke="#A0A0A0"/>
<path d="M5.99991 13.3144C6.27605 13.3144 6.49991 13.0905 6.49991 12.8144C6.49991 12.5382 6.27605 12.3144 5.99991 12.3144V13.3144ZM0.999908 12.8144V13.3144H5.99991V12.8144V12.3144H0.999908V12.8144Z" fill="#A0A0A0"/>
<path d="M11.5 6.81444C11.5 7.09058 11.7239 7.31444 12 7.31444C12.2761 7.31444 12.5 7.09058 12.5 6.81444H11.5ZM12 1.81444H11.5V6.81444H12H12.5V1.81444H12Z" fill="#A0A0A0"/>
<path d="M18.0001 12.3144C17.7239 12.3144 17.5001 12.5382 17.5001 12.8144C17.5001 13.0905 17.7239 13.3144 18.0001 13.3144L18.0001 12.3144ZM23.0001 12.8144L23.0001 12.3144L18.0001 12.3144L18.0001 12.8144L18.0001 13.3144L23.0001 13.3144L23.0001 12.8144Z" fill="#A0A0A0"/>
<path d="M12.5 18.8143C12.5 18.5382 12.2761 18.3143 12 18.3143C11.7239 18.3143 11.5 18.5382 11.5 18.8143L12.5 18.8143ZM12 23.8143L12.5 23.8143L12.5 18.8143L12 18.8143L11.5 18.8143L11.5 23.8143L12 23.8143Z" fill="#A0A0A0"/>
</svg>
