<svg width="24" height="25" viewBox="0 0 24 25" fill="none" xmlns="http://www.w3.org/2000/svg">
<path d="M20.3438 17.9706H18.6961C18.5836 17.9706 18.4781 18.0199 18.4078 18.1066C18.2438 18.3058 18.068 18.498 17.8828 18.6808C17.1255 19.4389 16.2285 20.043 15.2414 20.4597C14.2187 20.8917 13.1195 21.1132 12.0094 21.1113C10.8867 21.1113 9.79922 20.891 8.77735 20.4597C7.79021 20.043 6.89321 19.4389 6.13594 18.6808C5.37731 17.9253 4.7724 17.0299 4.35469 16.0441C3.9211 15.0222 3.70313 13.937 3.70313 12.8144C3.70313 11.6917 3.92344 10.6066 4.35469 9.5847C4.77188 8.59798 5.37188 7.7097 6.13594 6.94798C6.9 6.18626 7.78828 5.58626 8.77735 5.16908C9.79922 4.73783 10.8867 4.51751 12.0094 4.51751C13.132 4.51751 14.2195 4.73548 15.2414 5.16908C16.2305 5.58626 17.1188 6.18626 17.8828 6.94798C18.068 7.13314 18.2414 7.32533 18.4078 7.5222C18.4781 7.60892 18.5859 7.65814 18.6961 7.65814H20.3438C20.4914 7.65814 20.5828 7.49408 20.5008 7.36986C18.7031 4.57611 15.5578 2.72689 11.9836 2.73626C6.36797 2.75033 1.86563 7.30892 1.92188 12.9175C1.97813 18.437 6.47344 22.8925 12.0094 22.8925C15.5742 22.8925 18.7055 21.0456 20.5008 18.2589C20.5805 18.1347 20.4914 17.9706 20.3438 17.9706ZM22.4273 12.6667L19.1016 10.0417C18.9773 9.9433 18.7969 10.0324 18.7969 10.1894V11.9706H11.4375C11.3344 11.9706 11.25 12.055 11.25 12.1581V13.4706C11.25 13.5738 11.3344 13.6581 11.4375 13.6581H18.7969V15.4394C18.7969 15.5964 18.9797 15.6855 19.1016 15.587L22.4273 12.962C22.4498 12.9445 22.4679 12.9221 22.4803 12.8965C22.4928 12.8709 22.4993 12.8428 22.4993 12.8144C22.4993 12.7859 22.4928 12.7578 22.4803 12.7323C22.4679 12.7067 22.4498 12.6843 22.4273 12.6667Z" fill="#A0A0A0"/>
</svg>
