<svg width="24" height="25" viewBox="0 0 24 25" fill="none" xmlns="http://www.w3.org/2000/svg">
<path d="M6 3.81439H13C14.5913 3.81439 16.1174 4.44653 17.2426 5.57175C18.3679 6.69697 19 8.22309 19 9.81439C19 11.4057 18.3679 12.9318 17.2426 14.057C16.1174 15.1823 14.5913 15.8144 13 15.8144H10V21.8144H6V3.81439ZM10 7.81439V11.8144H13C13.5304 11.8144 14.0391 11.6037 14.4142 11.2286C14.7893 10.8535 15 10.3448 15 9.81439C15 9.28396 14.7893 8.77525 14.4142 8.40018C14.0391 8.02511 13.5304 7.81439 13 7.81439H10Z" fill="#A0A0A0"/>
</svg>
