<svg width="24" height="25" viewBox="0 0 24 25" fill="none" xmlns="http://www.w3.org/2000/svg">
<path d="M15.2413 8.29339C16.1617 10.1634 15.5283 12.3056 13.7692 13.2773C13.2916 13.5404 12.9167 14.1426 12.9167 14.6477C12.9167 15.1528 12.5069 15.5644 12 15.5644C11.4931 15.5644 11.0833 15.1546 11.0833 14.6477C11.0833 13.4799 11.824 12.2561 12.8828 11.6713C13.6564 11.2451 14.1496 10.2266 13.5959 9.1028C13.463 8.83239 13.232 8.60139 12.9616 8.46847C12.0532 8.02205 11.3638 8.30072 11.0329 8.50605C10.4903 8.8443 10.1667 9.42639 10.1667 10.0644C10.1667 10.5713 9.75692 10.9811 9.25 10.9811C8.74309 10.9811 8.33334 10.5713 8.33334 10.0644C8.33334 8.78839 8.9805 7.62422 10.0649 6.94955C11.1768 6.25655 12.5289 6.21164 13.7701 6.82305C14.4053 7.13564 14.9288 7.65722 15.2413 8.29339ZM12 16.4811C11.241 16.4811 10.625 17.0971 10.625 17.8561C10.625 18.6151 11.241 19.2311 12 19.2311C12.759 19.2311 13.375 18.6151 13.375 17.8561C13.375 17.0971 12.759 16.4811 12 16.4811Z" fill="#A0A0A0"/>
<circle cx="12" cy="12.8144" r="9.5" stroke="#A0A0A0"/>
</svg>
