<svg width="24" height="25" viewBox="0 0 24 25" fill="none" xmlns="http://www.w3.org/2000/svg">
<path d="M15.25 5.81439C14.9 5.81439 14.604 5.69339 14.362 5.45139C14.12 5.20939 13.9993 4.91373 14 4.56439C14.0007 4.21506 14.1217 3.91906 14.363 3.67639C14.6043 3.43373 14.9 3.31306 15.25 3.31439C15.6 3.31573 15.896 3.43673 16.138 3.67739C16.38 3.91806 16.5007 4.21373 16.5 4.56439C16.4993 4.91506 16.3783 5.21106 16.137 5.45239C15.8957 5.69373 15.6 5.81439 15.25 5.81439ZM15.25 22.3144C14.9 22.3144 14.604 22.1934 14.362 21.9514C14.12 21.7094 13.9993 21.4137 14 21.0644C14.0007 20.7151 14.1217 20.4191 14.363 20.1764C14.6043 19.9337 14.9 19.8131 15.25 19.8144C15.6 19.8157 15.896 19.9367 16.138 20.1774C16.38 20.4181 16.5007 20.7137 16.5 21.0644C16.4993 21.4151 16.3783 21.7111 16.137 21.9524C15.8957 22.1937 15.6 22.3144 15.25 22.3144ZM19.25 9.31439C18.9 9.31439 18.604 9.19339 18.362 8.95139C18.12 8.70939 17.9993 8.41373 18 8.06439C18.0007 7.71506 18.1217 7.41906 18.363 7.17639C18.6043 6.93373 18.9 6.81306 19.25 6.81439C19.6 6.81573 19.896 6.93673 20.138 7.17739C20.38 7.41806 20.5007 7.71373 20.5 8.06439C20.4993 8.41506 20.3783 8.71106 20.137 8.95239C19.8957 9.19373 19.6 9.31439 19.25 9.31439ZM19.25 18.8144C18.9 18.8144 18.604 18.6934 18.362 18.4514C18.12 18.2094 17.9993 17.9137 18 17.5644C18.0007 17.2151 18.1217 16.9191 18.363 16.6764C18.6043 16.4337 18.9 16.3131 19.25 16.3144C19.6 16.3157 19.896 16.4367 20.138 16.6774C20.38 16.9181 20.5007 17.2137 20.5 17.5644C20.4993 17.9151 20.3783 18.2111 20.137 18.4524C19.8957 18.6937 19.6 18.8144 19.25 18.8144ZM20.75 14.0644C20.4 14.0644 20.104 13.9434 19.862 13.7014C19.62 13.4594 19.4993 13.1637 19.5 12.8144C19.5007 12.4651 19.6217 12.1691 19.863 11.9264C20.1043 11.6837 20.4 11.5631 20.75 11.5644C21.1 11.5657 21.396 11.6867 21.638 11.9274C21.88 12.1681 22.0007 12.4637 22 12.8144C21.9993 13.1651 21.8783 13.4611 21.637 13.7024C21.3957 13.9437 21.1 14.0644 20.75 14.0644ZM12 22.8144C10.6167 22.8144 9.31667 22.5517 8.1 22.0264C6.88334 21.5011 5.825 20.7887 4.925 19.8894C4.025 18.9901 3.31267 17.9317 2.788 16.7144C2.26333 15.4971 2.00067 14.1971 2 12.8144C1.99933 11.4317 2.262 10.1317 2.788 8.91439C3.314 7.69706 4.02633 6.63873 4.925 5.73939C5.82367 4.84006 6.882 4.12773 8.1 3.60239C9.318 3.07706 10.618 2.81439 12 2.81439V4.81439C9.76667 4.81439 7.875 5.58939 6.325 7.13939C4.775 8.68939 4 10.5811 4 12.8144C4 15.0477 4.775 16.9394 6.325 18.4894C7.875 20.0394 9.76667 20.8144 12 20.8144V22.8144ZM15.3 17.5144L11 13.2144V7.81439H13V12.4144L16.7 16.1144L15.3 17.5144Z" fill="#A0A0A0"/>
</svg>
