<svg width="24" height="25" viewBox="0 0 24 25" fill="none" xmlns="http://www.w3.org/2000/svg">
<path d="M8 17.8144V21.3144M8 4.31439V7.81439M15.018 10.2474L15.546 11.3124C15.618 11.4604 15.81 11.6024 15.972 11.6304L16.929 11.7904C17.541 11.8934 17.685 12.3404 17.244 12.7824L16.5 13.5324C16.4349 13.6062 16.387 13.6936 16.36 13.7882C16.3331 13.8829 16.3276 13.9824 16.344 14.0794L16.557 15.0084C16.725 15.7434 16.338 16.0284 15.693 15.6434L14.796 15.1084C14.7044 15.0604 14.6025 15.0353 14.499 15.0353C14.3955 15.0353 14.2936 15.0604 14.202 15.1084L13.306 15.6434C12.664 16.0274 12.274 15.7404 12.442 15.0084L12.655 14.0794C12.6714 13.9824 12.6659 13.8829 12.639 13.7882C12.612 13.6936 12.5641 13.6062 12.499 13.5324L11.755 12.7824C11.317 12.3404 11.458 11.8924 12.07 11.7904L13.027 11.6304C13.1159 11.61 13.1995 11.5712 13.2723 11.5164C13.3452 11.4616 13.4057 11.3921 13.45 11.3124L13.977 10.2474C14.265 9.67039 14.733 9.67039 15.018 10.2474Z" stroke="#A0A0A0" stroke-width="1.5" stroke-linecap="round" stroke-linejoin="round"/>
<path d="M22 9.69339C21.933 8.15139 21.746 7.14739 21.22 6.35339C20.9208 5.901 20.5456 5.50381 20.111 5.17939C18.945 4.31439 17.3 4.31439 14.008 4.31439H9.993C6.702 4.31439 5.056 4.31439 3.89 5.17939C3.458 5.49939 3.083 5.89639 2.78 6.35339C2.255 7.14739 2.068 8.15139 2 9.69339C1.99 9.95639 2.216 10.1584 2.465 10.1584C3.851 10.1584 4.975 11.3474 4.975 12.8144C4.975 14.2814 3.851 15.4704 2.465 15.4704C2.216 15.4704 1.989 15.6724 2.001 15.9364C2.068 17.4774 2.255 18.4814 2.781 19.2764C3.08025 19.7284 3.45545 20.1253 3.89 20.4494C5.056 21.3144 6.702 21.3144 9.993 21.3144H14.008C17.299 21.3144 18.945 21.3144 20.111 20.4494C20.543 20.1294 20.918 19.7324 21.221 19.2754C21.746 18.4814 21.933 17.4774 22 15.9354V9.69339Z" stroke="#A0A0A0" stroke-width="1.5" stroke-linecap="round" stroke-linejoin="round"/>
</svg>
