<svg width="24" height="25" viewBox="0 0 24 25" fill="none" xmlns="http://www.w3.org/2000/svg">
<path fill-rule="evenodd" clip-rule="evenodd" d="M12 2.81439C17.523 2.81439 22 7.29139 22 12.8144C22.0035 15.1223 21.2053 17.3597 19.742 19.1444L19.762 19.1664L19.63 19.2784C18.6921 20.3875 17.5235 21.2786 16.2056 21.8893C14.8878 22.5 13.4525 22.8157 12 22.8144C9.05001 22.8144 6.40001 21.5374 4.57001 19.5074L4.37001 19.2774L4.23801 19.1674L4.25801 19.1434C2.79491 17.359 1.9968 15.1219 2.00001 12.8144C2.00001 7.29139 6.47701 2.81439 12 2.81439ZM12 17.8144C10.14 17.8144 8.45901 18.4064 7.20701 19.2204C8.58959 20.2573 10.2718 20.8168 12 20.8144C13.7282 20.8168 15.4104 20.2573 16.793 19.2204C15.3623 18.3038 13.6991 17.8159 12 17.8144ZM12 4.81439C10.4945 4.81435 9.0196 5.23911 7.74473 6.03984C6.46987 6.84058 5.44681 7.98479 4.79317 9.34096C4.13952 10.6971 3.88181 12.2102 4.04966 13.7063C4.21751 15.2024 4.8041 16.6208 5.74201 17.7984C7.36301 16.6354 9.57501 15.8144 12 15.8144C14.425 15.8144 16.637 16.6354 18.258 17.7984C19.1959 16.6208 19.7825 15.2024 19.9504 13.7063C20.1182 12.2102 19.8605 10.6971 19.2068 9.34096C18.5532 7.98479 17.5302 6.84058 16.2553 6.03984C14.9804 5.23911 13.5055 4.81435 12 4.81439ZM12 6.81439C13.0609 6.81439 14.0783 7.23582 14.8284 7.98596C15.5786 8.73611 16 9.75353 16 10.8144C16 11.8753 15.5786 12.8927 14.8284 13.6428C14.0783 14.393 13.0609 14.8144 12 14.8144C10.9391 14.8144 9.92173 14.393 9.17158 13.6428C8.42144 12.8927 8.00001 11.8753 8.00001 10.8144C8.00001 9.75353 8.42144 8.73611 9.17158 7.98596C9.92173 7.23582 10.9391 6.81439 12 6.81439ZM12 8.81439C11.4696 8.81439 10.9609 9.02511 10.5858 9.40018C10.2107 9.77525 10 10.284 10 10.8144C10 11.3448 10.2107 11.8535 10.5858 12.2286C10.9609 12.6037 11.4696 12.8144 12 12.8144C12.5304 12.8144 13.0391 12.6037 13.4142 12.2286C13.7893 11.8535 14 11.3448 14 10.8144C14 10.284 13.7893 9.77525 13.4142 9.40018C13.0391 9.02511 12.5304 8.81439 12 8.81439Z" fill="#A0A0A0"/>
</svg>
