<svg width="24" height="25" viewBox="0 0 24 25" fill="none" xmlns="http://www.w3.org/2000/svg">
<path d="M21.2154 19.4521C20.7137 18.2733 19.9856 17.2025 19.0718 16.2994C18.1607 15.3938 17.0814 14.6717 15.8936 14.1731C15.883 14.1678 15.8723 14.1651 15.8617 14.1599C17.5186 12.9727 18.5957 11.0389 18.5957 8.85711C18.5957 5.24278 15.6436 2.31439 12 2.31439C8.35641 2.31439 5.4043 5.24278 5.4043 8.85711C5.4043 11.0389 6.48142 12.9727 8.13832 14.1625C8.12769 14.1678 8.11705 14.1704 8.10641 14.1757C6.91493 14.6743 5.84579 15.3893 4.92824 16.3021C4.01522 17.2058 3.28729 18.2764 2.78464 19.4547C2.29082 20.6083 2.02449 21.845 2.00007 23.0981C1.99936 23.1262 2.00434 23.1542 2.01471 23.1804C2.02508 23.2067 2.04064 23.2306 2.06047 23.2507C2.0803 23.2709 2.104 23.2869 2.13016 23.2978C2.15633 23.3088 2.18444 23.3144 2.21283 23.3144H3.80857C3.92559 23.3144 4.01867 23.2221 4.02133 23.1086C4.07452 21.0719 4.89898 19.1645 6.35642 17.7188C7.86439 16.2229 9.86704 15.3998 12 15.3998C14.133 15.3998 16.1356 16.2229 17.6436 17.7188C19.101 19.1645 19.9255 21.0719 19.9787 23.1086C19.9813 23.2247 20.0744 23.3144 20.1914 23.3144H21.7872C21.8156 23.3144 21.8437 23.3088 21.8698 23.2978C21.896 23.2869 21.9197 23.2709 21.9395 23.2507C21.9594 23.2306 21.9749 23.2067 21.9853 23.1804C21.9957 23.1542 22.0006 23.1262 21.9999 23.0981C21.9733 21.837 21.71 20.6102 21.2154 19.4521ZM12 13.3948C10.7793 13.3948 9.63033 12.9226 8.76598 12.0651C7.90162 11.2077 7.42556 10.068 7.42556 8.85711C7.42556 7.64618 7.90162 6.50648 8.76598 5.64907C9.63033 4.79165 10.7793 4.31942 12 4.31942C13.2207 4.31942 14.3697 4.79165 15.234 5.64907C16.0984 6.50648 16.5744 7.64618 16.5744 8.85711C16.5744 10.068 16.0984 11.2077 15.234 12.0651C14.3697 12.9226 13.2207 13.3948 12 13.3948Z" fill="#A0A0A0"/>
</svg>
