<svg width="24" height="25" viewBox="0 0 24 25" fill="none" xmlns="http://www.w3.org/2000/svg">
<path fill-rule="evenodd" clip-rule="evenodd" d="M12 2.81439C6.477 2.81439 2 7.29139 2 12.8144C2 18.3374 6.477 22.8144 12 22.8144C17.523 22.8144 22 18.3374 22 12.8144C22 7.29139 17.523 2.81439 12 2.81439ZM8.5 10.3144C8.5 9.85477 8.59053 9.39964 8.76642 8.975C8.94231 8.55036 9.20012 8.16452 9.52513 7.83952C9.85013 7.51451 10.236 7.25671 10.6606 7.08081C11.0852 6.90492 11.5404 6.81439 12 6.81439C12.4596 6.81439 12.9148 6.90492 13.3394 7.08081C13.764 7.25671 14.1499 7.51451 14.4749 7.83952C14.7999 8.16452 15.0577 8.55036 15.2336 8.975C15.4095 9.39964 15.5 9.85477 15.5 10.3144C15.5 11.2427 15.1313 12.1329 14.4749 12.7893C13.8185 13.4456 12.9283 13.8144 12 13.8144C11.0717 13.8144 10.1815 13.4456 9.52513 12.7893C8.86875 12.1329 8.5 11.2427 8.5 10.3144ZM18.258 17.7984C17.5092 18.7397 16.5575 19.4999 15.4739 20.0221C14.3904 20.5443 13.2029 20.8152 12 20.8144C10.7971 20.8152 9.60965 20.5443 8.52607 20.0221C7.44249 19.4999 6.49081 18.7397 5.742 17.7984C7.363 16.6354 9.575 15.8144 12 15.8144C14.425 15.8144 16.637 16.6354 18.258 17.7984Z" fill="#A0A0A0"/>
</svg>
