<svg width="24" height="25" viewBox="0 0 24 25" fill="none" xmlns="http://www.w3.org/2000/svg">
<path d="M16.0605 22.3604C16.3417 22.0791 16.4997 21.6976 16.4997 21.2999C16.4997 20.9022 16.3417 20.5207 16.0605 20.2394L8.63548 12.8144L16.0605 5.3894C16.3337 5.10649 16.4849 4.72759 16.4815 4.3343C16.4781 3.941 16.3203 3.56478 16.0422 3.28667C15.7641 3.00856 15.3879 2.85081 14.9946 2.84739C14.6013 2.84397 14.2224 2.99516 13.9395 3.2684L5.45398 11.7539C5.17278 12.0352 5.0148 12.4166 5.0148 12.8144C5.0148 13.2121 5.17278 13.5936 5.45398 13.8749L13.9395 22.3604C14.2208 22.6416 14.6022 22.7996 15 22.7996C15.3977 22.7996 15.7792 22.6416 16.0605 22.3604Z" fill="#A0A0A0"/>
</svg>
