<svg width="24" height="24" viewBox="0 0 24 24" fill="none" xmlns="http://www.w3.org/2000/svg">
<path d="M2.45401 7.9395C2.7353 7.65829 3.11676 7.50032 3.51451 7.50032C3.91226 7.50032 4.29372 7.65829 4.57501 7.9395L12 15.3645L19.425 7.9395C19.7079 7.66626 20.0868 7.51507 20.4801 7.51849C20.8734 7.52191 21.2496 7.67966 21.5277 7.95777C21.8059 8.23588 21.9636 8.6121 21.967 9.0054C21.9704 9.39869 21.8192 9.7776 21.546 10.0605L13.0605 18.546C12.7792 18.8272 12.3978 18.9852 12 18.9852C11.6023 18.9852 11.2208 18.8272 10.9395 18.546L2.45401 10.0605C2.1728 9.77921 2.01483 9.39775 2.01483 9C2.01483 8.60225 2.1728 8.22079 2.45401 7.9395Z" fill="currentColor"/>
</svg>
