<svg width="24" height="25" viewBox="0 0 24 25" fill="none" xmlns="http://www.w3.org/2000/svg">
<path fill-rule="evenodd" clip-rule="evenodd" d="M4 12.8144C4 17.2327 7.58172 20.8144 12 20.8144C16.4183 20.8144 20 17.2327 20 12.8144C20 8.39611 16.4183 4.81439 12 4.81439C7.58172 4.81439 4 8.39611 4 12.8144ZM2 12.8144C2 18.3372 6.47715 22.8144 12 22.8144C17.5228 22.8144 22 18.3372 22 12.8144C22 7.29154 17.5228 2.81439 12 2.81439C6.47715 2.81439 2 7.29154 2 12.8144ZM12.7281 9.10471C12.3361 9.49381 12.3338 10.127 12.7229 10.5189L13.965 11.77L7.99864 11.77C7.44636 11.77 6.99864 12.2178 6.99864 12.77C6.99864 13.3223 7.44636 13.77 7.99864 13.77L14.053 13.77L12.7229 15.1099C12.3338 15.5018 12.3361 16.135 12.7281 16.5241C13.12 16.9132 13.7532 16.9109 14.1423 16.5189L16.4211 14.2234C17.1953 13.4436 17.1953 12.1852 16.4211 11.4053L14.1423 9.10987C13.7532 8.71792 13.12 8.71561 12.7281 9.10471Z" fill="currentColor"/>
</svg>
