<svg width="24" height="25" viewBox="0 0 24 25" fill="none" xmlns="http://www.w3.org/2000/svg">
<path d="M7.93949 3.2684C7.65828 3.54969 7.50031 3.93116 7.50031 4.3289C7.50031 4.72665 7.65828 5.10811 7.93949 5.3894L15.3645 12.8144L7.93949 20.2394C7.66625 20.5223 7.51506 20.9012 7.51847 21.2945C7.52189 21.6878 7.67964 22.064 7.95776 22.3421C8.23587 22.6202 8.61209 22.778 9.00538 22.7814C9.39868 22.7848 9.77758 22.6336 10.0605 22.3604L18.546 13.8749C18.8272 13.5936 18.9852 13.2121 18.9852 12.8144C18.9852 12.4167 18.8272 12.0352 18.546 11.7539L10.0605 3.2684C9.77919 2.9872 9.39773 2.82922 8.99998 2.82922C8.60224 2.82922 8.22078 2.9872 7.93949 3.2684Z" fill="#A0A0A0"/>
</svg>
