<svg width="24" height="25" viewBox="0 0 24 25" fill="none" xmlns="http://www.w3.org/2000/svg">
<path d="M16.05 6.85999C16.1816 6.94974 16.2722 7.08809 16.3018 7.24461C16.3313 7.40112 16.2975 7.56299 16.2078 7.69459C16.118 7.82619 15.9797 7.91675 15.8232 7.94634C15.6667 7.97593 15.5048 7.94214 15.3732 7.85239C14.2653 7.09922 12.9372 6.73851 11.6005 6.82771C10.2638 6.91692 8.99538 7.45091 7.99737 8.34461C6.99936 9.23831 6.32916 10.4403 6.09353 11.7591C5.85791 13.0779 6.07042 14.4376 6.69721 15.6216C7.324 16.8056 8.32901 17.7458 9.55212 18.2923C10.7752 18.8389 12.1461 18.9604 13.4462 18.6375C14.7464 18.3146 15.9011 17.5658 16.7264 16.5105C17.5517 15.4552 18 14.1541 18 12.8144C18 12.6553 18.0632 12.5026 18.1757 12.3901C18.2883 12.2776 18.4409 12.2144 18.6 12.2144C18.7591 12.2144 18.9117 12.2776 19.0243 12.3901C19.1368 12.5026 19.2 12.6553 19.2 12.8144C19.1999 14.422 18.6617 15.9834 17.6712 17.2496C16.6808 18.5159 15.295 19.4143 13.7347 19.8016C12.1745 20.189 10.5295 20.043 9.06177 19.3869C7.5941 18.7309 6.38821 17.6025 5.63623 16.1816C4.88425 14.7607 4.62944 13.129 4.91241 11.5464C5.19538 9.9639 5.99984 8.5216 7.19762 7.44931C8.3954 6.37703 9.91759 5.73645 11.5217 5.62965C13.1258 5.52285 14.7194 5.95596 16.0488 6.85999" fill="currentColor"/>
<path d="M15.3228 14.7164C15.2565 14.761 15.1819 14.7919 15.1034 14.8073C15.025 14.8227 14.9443 14.8223 14.866 14.806C14.7877 14.7898 14.7135 14.758 14.6477 14.7127C14.5818 14.6674 14.5257 14.6093 14.4826 14.542C14.4395 14.4747 14.4103 14.3994 14.3967 14.3207C14.3831 14.2419 14.3853 14.1612 14.4034 14.0833C14.4214 14.0054 14.4548 13.9319 14.5016 13.8671C14.5484 13.8023 14.6077 13.7476 14.676 13.706L18.8544 11.0336C18.9207 10.989 18.9953 10.9581 19.0737 10.9427C19.1522 10.9273 19.2329 10.9277 19.3112 10.944C19.3895 10.9602 19.4637 10.9919 19.5295 11.0373C19.5954 11.0826 19.6515 11.1406 19.6946 11.208C19.7377 11.2753 19.7669 11.3506 19.7805 11.4293C19.7941 11.5081 19.7918 11.5888 19.7738 11.6667C19.7558 11.7446 19.7224 11.8181 19.6756 11.8829C19.6288 11.9476 19.5695 12.0024 19.5012 12.044L15.3228 14.7164Z" fill="currentColor"/>
<path d="M21.5364 15.3512C21.596 15.4956 21.5969 15.6576 21.5389 15.8026C21.481 15.9477 21.3687 16.0645 21.2261 16.1281C21.0834 16.1917 20.9215 16.1971 20.7749 16.1433C20.6282 16.0894 20.5084 15.9804 20.4408 15.8396L18.63 11.7836C18.5978 11.7116 18.5802 11.6339 18.5781 11.5551C18.5759 11.4763 18.5893 11.3978 18.6175 11.3241C18.6457 11.2505 18.6881 11.1831 18.7424 11.1258C18.7966 11.0686 18.8616 11.0225 18.9336 10.9904C19.0056 10.9582 19.0833 10.9406 19.1621 10.9385C19.2409 10.9363 19.3194 10.9497 19.3931 10.9779C19.4667 11.0061 19.5341 11.0485 19.5914 11.1028C19.6486 11.157 19.6946 11.222 19.7268 11.294L21.5364 15.3512Z" fill="currentColor"/>
</svg>
