<svg width="24" height="25" viewBox="0 0 24 25" fill="none" xmlns="http://www.w3.org/2000/svg">
<path fill-rule="evenodd" clip-rule="evenodd" d="M4 5.81439C4 5.01874 4.31607 4.25568 4.87868 3.69307C5.44129 3.13046 6.20435 2.81439 7 2.81439H17C17.7956 2.81439 18.5587 3.13046 19.1213 3.69307C19.6839 4.25568 20 5.01874 20 5.81439V21.8424C20 23.0624 18.62 23.7724 17.628 23.0634L12 19.0434L6.372 23.0634C5.379 23.7734 4 23.0634 4 21.8434V5.81439ZM7 4.81439C6.73478 4.81439 6.48043 4.91975 6.29289 5.10729C6.10536 5.29482 6 5.54918 6 5.81439V20.8714L11.128 17.2084C11.3824 17.0266 11.6873 16.9289 12 16.9289C12.3127 16.9289 12.6176 17.0266 12.872 17.2084L18 20.8714V5.81439C18 5.54918 17.8946 5.29482 17.7071 5.10729C17.5196 4.91975 17.2652 4.81439 17 4.81439H7Z" fill="currentColor"/>
</svg>
