<svg width="24" height="25" viewBox="0 0 24 25" fill="none" xmlns="http://www.w3.org/2000/svg">
<path d="M18.3281 23.3144C17.4131 23.3144 16.1278 22.9834 14.2031 21.9081C11.8627 20.5956 10.0523 19.3839 7.72453 17.0622C5.48015 14.8192 4.38797 13.367 2.85937 10.5855C1.1325 7.44485 1.42687 5.7986 1.75594 5.09501C2.14781 4.25407 2.72625 3.7511 3.47391 3.25188C3.89857 2.97365 4.34797 2.73514 4.81641 2.53938C4.86328 2.51923 4.90687 2.50001 4.94578 2.48267C5.17781 2.37813 5.52937 2.22017 5.97469 2.38892C6.27187 2.50048 6.53719 2.72876 6.9525 3.13892C7.80422 3.97892 8.96812 5.8497 9.3975 6.76845C9.68578 7.38767 9.87656 7.79642 9.87703 8.25485C9.87703 8.79157 9.60703 9.20548 9.27937 9.6522C9.21797 9.7361 9.15703 9.81626 9.09797 9.89407C8.74125 10.3628 8.66297 10.4983 8.71453 10.7402C8.81906 11.2263 9.59859 12.6733 10.8797 13.9516C12.1608 15.2299 13.5661 15.9602 14.0541 16.0642C14.3062 16.1181 14.4445 16.0366 14.9283 15.6672C14.9977 15.6142 15.0689 15.5594 15.1434 15.5045C15.6431 15.1328 16.0378 14.8699 16.5619 14.8699H16.5647C17.0208 14.8699 17.4112 15.0677 18.0581 15.3939C18.9019 15.8195 20.8289 16.9684 21.6741 17.8211C22.0852 18.2355 22.3144 18.4999 22.4264 18.7966C22.5952 19.2433 22.4362 19.5934 22.3327 19.8278C22.3153 19.8667 22.2961 19.9094 22.2759 19.9567C22.0786 20.4243 21.8387 20.8728 21.5592 21.2964C21.0609 22.0417 20.5561 22.6188 19.7133 23.0111C19.2805 23.2158 18.8069 23.3195 18.3281 23.3144Z" fill="#A0A0A0"/>
</svg>
