<svg width="24" height="25" viewBox="0 0 24 25" fill="none" xmlns="http://www.w3.org/2000/svg">
<path d="M12.0001 16.0143C13.3256 16.0143 14.4001 14.9398 14.4001 13.6143C14.4001 12.2888 13.3256 11.2143 12.0001 11.2143C10.6747 11.2143 9.60015 12.2888 9.60015 13.6143C9.60015 14.9398 10.6747 16.0143 12.0001 16.0143Z" stroke="#A0A0A0" stroke-width="1.25"/>
<path d="M10.2224 20.0144H13.7776C16.2744 20.0144 17.5232 20.0144 18.42 19.4264C18.8071 19.1729 19.1403 18.8456 19.4008 18.4632C20 17.5832 20 16.3568 20 13.9056C20 11.4544 20 10.228 19.4008 9.34801C19.1403 8.96561 18.8071 8.6383 18.42 8.38481C17.844 8.00641 17.1224 7.87121 16.0176 7.82321C15.4904 7.82321 15.0368 7.43121 14.9336 6.92321C14.8547 6.55111 14.6498 6.21764 14.3535 5.97917C14.0571 5.7407 13.6876 5.61186 13.3072 5.61441H10.6928C9.9024 5.61441 9.2216 6.16241 9.0664 6.92321C8.9632 7.43121 8.5096 7.82321 7.9824 7.82321C6.8784 7.87121 6.1568 8.00721 5.58 8.38481C5.19323 8.63838 4.86022 8.96568 4.6 9.34801C4 10.228 4 11.4536 4 13.9056C4 16.3576 4 17.5824 4.5992 18.4632C4.8584 18.844 5.1912 19.1712 5.58 19.4264C6.4768 20.0144 7.7256 20.0144 10.2224 20.0144Z" stroke="#A0A0A0" stroke-width="1.25"/>
<path d="M17.6001 11.2143H16.8001" stroke="#A0A0A0" stroke-width="1.25" stroke-linecap="round"/>
</svg>
