<svg width="24" height="25" viewBox="0 0 24 25" fill="none" xmlns="http://www.w3.org/2000/svg">
<path fill-rule="evenodd" clip-rule="evenodd" d="M15.764 4.81439C16.3211 4.81441 16.8671 4.96953 17.341 5.26236C17.8148 5.5552 18.1978 5.97418 18.447 6.47239L19.833 9.24339C20.077 9.14339 20.317 9.03539 20.553 8.91939C20.7904 8.80084 21.0651 8.78144 21.3168 8.86545C21.5685 8.94947 21.7765 9.13002 21.895 9.36739C22.0136 9.60476 22.033 9.8795 21.9489 10.1312C21.8649 10.3828 21.6844 10.5908 21.447 10.7094C21.2066 10.8164 20.9649 10.9204 20.722 11.0214L21.683 12.9444C21.8916 13.3613 22.0001 13.8212 22 14.2874V16.8144C22 17.2365 21.9109 17.6538 21.7386 18.0391C21.5663 18.4244 21.3146 18.769 21 19.0504V20.3144C21 20.7122 20.842 21.0937 20.5607 21.3751C20.2794 21.6564 19.8978 21.8144 19.5 21.8144C19.1022 21.8144 18.7206 21.6564 18.4393 21.3751C18.158 21.0937 18 20.7122 18 20.3144V19.8144H6V20.3144C6 20.7122 5.84197 21.0937 5.56066 21.3751C5.27936 21.6564 4.89783 21.8144 4.5 21.8144C4.10218 21.8144 3.72064 21.6564 3.43934 21.3751C3.15804 21.0937 3 20.7122 3 20.3144V19.0504C2.386 18.5004 2 17.7024 2 16.8144V14.2864C2.00019 13.8209 2.10872 13.3617 2.317 12.9454L3.27 11.0374C3.02867 10.9361 2.79033 10.8271 2.555 10.7104C2.31883 10.5903 2.13931 10.3822 2.05513 10.131C1.97096 9.87977 1.98887 9.60553 2.105 9.36739C2.16366 9.24982 2.24491 9.14496 2.34412 9.05881C2.44332 8.97265 2.55853 8.9069 2.68316 8.86529C2.80779 8.82369 2.9394 8.80705 3.07046 8.81633C3.20153 8.82561 3.32948 8.86063 3.447 8.91939C3.68367 9.03606 3.92367 9.14406 4.167 9.24339L5.553 6.47339C5.80205 5.975 6.18497 5.5558 6.65885 5.26279C7.13273 4.96977 7.67885 4.8145 8.236 4.81439H15.764ZM7.5 13.8144C7.10218 13.8144 6.72064 13.9724 6.43934 14.2537C6.15804 14.535 6 14.9166 6 15.3144C6 15.7122 6.15804 16.0937 6.43934 16.3751C6.72064 16.6564 7.10218 16.8144 7.5 16.8144C7.89783 16.8144 8.27936 16.6564 8.56066 16.3751C8.84197 16.0937 9 15.7122 9 15.3144C9 14.9166 8.84197 14.535 8.56066 14.2537C8.27936 13.9724 7.89783 13.8144 7.5 13.8144ZM16.5 13.8144C16.1022 13.8144 15.7206 13.9724 15.4393 14.2537C15.158 14.535 15 14.9166 15 15.3144C15 15.7122 15.158 16.0937 15.4393 16.3751C15.7206 16.6564 16.1022 16.8144 16.5 16.8144C16.8978 16.8144 17.2794 16.6564 17.5607 16.3751C17.842 16.0937 18 15.7122 18 15.3144C18 14.9166 17.842 14.535 17.5607 14.2537C17.2794 13.9724 16.8978 13.8144 16.5 13.8144ZM15.764 6.81439H8.236C8.07141 6.81437 7.90935 6.85497 7.76422 6.9326C7.61908 7.01022 7.49535 7.12248 7.404 7.25939L7.342 7.36739L6.072 9.90539C7.62 10.3694 9.706 10.8144 12 10.8144C14.142 10.8144 16.101 10.4264 17.61 9.99739L17.927 9.90539L16.658 7.36739C16.5844 7.22021 16.4756 7.09346 16.3413 6.99839C16.207 6.90332 16.0513 6.84287 15.888 6.82239L15.765 6.81439H15.764Z" fill="currentColor"/>
</svg>
