<svg width="24" height="25" viewBox="0 0 24 25" fill="none" xmlns="http://www.w3.org/2000/svg">
<path d="M9 10.8144C8.73478 10.8144 8.48043 10.9198 8.29289 11.1073C8.10536 11.2948 8 11.5492 8 11.8144V15.8144H10V12.8144H13V15.3144L16.5 11.8144L13 8.3144V10.8144H9ZM12.707 2.2074L22.607 12.1074C22.7945 12.2949 22.8998 12.5492 22.8998 12.8144C22.8998 13.0796 22.7945 13.3339 22.607 13.5214L12.707 23.4214C12.5195 23.6089 12.2652 23.7142 12 23.7142C11.7348 23.7142 11.4805 23.6089 11.293 23.4214L1.393 13.5214C1.20553 13.3339 1.10021 13.0796 1.10021 12.8144C1.10021 12.5492 1.20553 12.2949 1.393 12.1074L11.293 2.2074C11.4805 2.01993 11.7348 1.91461 12 1.91461C12.2652 1.91461 12.5195 2.01993 12.707 2.2074Z" fill="currentColor"/>
</svg>
