<svg width="24" height="25" viewBox="0 0 24 25" fill="none" xmlns="http://www.w3.org/2000/svg">
<g clip-path="url(#clip0_375_7740)">
<path d="M8.39067 15.1875C8.1406 15.4375 8.00008 15.7766 8 16.1302V16.8145H8.68433C9.03793 16.8144 9.37701 16.6739 9.627 16.4238L14.0747 11.9762L12.8383 10.7398L8.39067 15.1875Z" fill="currentColor"/>
<path d="M15.7149 9.09935C15.6337 9.0181 15.5373 8.95364 15.4312 8.90966C15.3251 8.86568 15.2114 8.84304 15.0966 8.84304C14.9817 8.84304 14.868 8.86568 14.7619 8.90966C14.6558 8.95364 14.5594 9.0181 14.4782 9.09935L13.3096 10.2684L14.5459 11.5047L15.7149 10.336C15.7962 10.2548 15.8606 10.1585 15.9046 10.0524C15.9486 9.94626 15.9712 9.83254 15.9712 9.71768C15.9712 9.60283 15.9486 9.48911 15.9046 9.38301C15.8606 9.27691 15.7962 9.18052 15.7149 9.09935Z" fill="currentColor"/>
</g>
<defs>
<clipPath id="clip0_375_7740">
<rect width="8" height="8" fill="white" transform="translate(8 8.81439)"/>
</clipPath>
</defs>
</svg>
