<svg width="24" height="24" viewBox="0 0 24 24" fill="none" xmlns="http://www.w3.org/2000/svg">
<g clip-path="url(#clip0_192_785)">
<path d="M12 0.000183105C5.373 0.000183105 0 5.37318 0 12.0002C0 18.6272 5.373 24.0002 12 24.0002C18.627 24.0002 24 18.6272 24 12.0002C24 5.37318 18.627 0.000183105 12 0.000183105ZM12 2.00018C14.398 2.00018 16.601 2.84918 18.325 4.26118L12 10.5862L5.675 4.26118C7.4 2.84918 9.603 2.00018 12 2.00018ZM2 12.0002C2 9.60218 2.849 7.39918 4.261 5.67518L10.586 12.0002L4.261 18.3252C2.849 16.6002 2 14.3972 2 12.0002ZM12 22.0002C9.602 22.0002 7.399 21.1512 5.675 19.7392L12 13.4142L18.325 19.7392C16.6 21.1512 14.397 22.0002 12 22.0002ZM19.739 18.3252L13.414 12.0002L19.739 5.67518C21.151 7.40018 22 9.60318 22 12.0002C22 14.3972 21.151 16.6012 19.739 18.3252Z" fill="#A0A0A0"/>
</g>
<defs>
<clipPath id="clip0_192_785">
<rect width="24" height="24" fill="white"/>
</clipPath>
</defs>
</svg>
