<svg width="24" height="25" viewBox="0 0 24 25" fill="none" xmlns="http://www.w3.org/2000/svg">
<path d="M2 6.08439L3.28 4.81439L20 21.5344L18.73 22.8144L15.65 19.7344C14.5 20.1144 13.28 20.3144 12 20.3144C7 20.3144 2.73 17.2044 1 12.8144C1.69 11.0544 2.79 9.50439 4.19 8.27439L2 6.08439ZM12 9.81439C12.7956 9.81439 13.5587 10.1305 14.1213 10.6931C14.6839 11.2557 15 12.0187 15 12.8144C15.0005 13.155 14.943 13.4931 14.83 13.8144L11 9.98439C11.3213 9.87138 11.6594 9.81389 12 9.81439ZM12 5.31439C17 5.31439 21.27 8.42439 23 12.8144C22.1834 14.8873 20.7966 16.6867 19 18.0044L17.58 16.5744C18.9629 15.6178 20.0783 14.3235 20.82 12.8144C20.0117 11.1643 18.7565 9.77402 17.1974 8.80175C15.6382 7.82947 13.8375 7.31415 12 7.31439C10.91 7.31439 9.84 7.49439 8.84 7.81439L7.3 6.28439C8.74 5.66439 10.33 5.31439 12 5.31439ZM3.18 12.8144C3.98835 14.4645 5.24345 15.8548 6.80264 16.827C8.36182 17.7993 10.1625 18.3146 12 18.3144C12.69 18.3144 13.37 18.2444 14 18.1044L11.72 15.8144C11.0242 15.7398 10.3748 15.4293 9.87997 14.9344C9.38512 14.4396 9.07458 13.7902 9 13.0944L5.6 9.68439C4.61 10.5344 3.78 11.5944 3.18 12.8144Z" fill="currentColor"/>
</svg>
