<svg width="24" height="25" viewBox="0 0 24 25" fill="none" xmlns="http://www.w3.org/2000/svg">
<path d="M21.25 12.8144H8.895M4.534 12.8144H2.75M4.534 12.8144C4.534 12.2362 4.76368 11.6817 5.17251 11.2729C5.58134 10.8641 6.13583 10.6344 6.714 10.6344C7.29217 10.6344 7.84666 10.8641 8.25549 11.2729C8.66432 11.6817 8.894 12.2362 8.894 12.8144C8.894 13.3926 8.66432 13.9471 8.25549 14.3559C7.84666 14.7647 7.29217 14.9944 6.714 14.9944C6.13583 14.9944 5.58134 14.7647 5.17251 14.3559C4.76368 13.9471 4.534 13.3926 4.534 12.8144ZM21.25 19.4214H15.502M15.502 19.4214C15.502 19.9997 15.2718 20.5548 14.8628 20.9637C14.4539 21.3727 13.8993 21.6024 13.321 21.6024C12.7428 21.6024 12.1883 21.3717 11.7795 20.9629C11.3707 20.5541 11.141 19.9996 11.141 19.4214M15.502 19.4214C15.502 18.8431 15.2718 18.289 14.8628 17.88C14.4539 17.4711 13.8993 17.2414 13.321 17.2414C12.7428 17.2414 12.1883 17.4711 11.7795 17.8799C11.3707 18.2887 11.141 18.8432 11.141 19.4214M11.141 19.4214H2.75M21.25 6.20739H18.145M13.784 6.20739H2.75M13.784 6.20739C13.784 5.62922 14.0137 5.07473 14.4225 4.6659C14.8313 4.25707 15.3858 4.02739 15.964 4.02739C16.2503 4.02739 16.5338 4.08378 16.7983 4.19334C17.0627 4.30289 17.3031 4.46347 17.5055 4.6659C17.7079 4.86833 17.8685 5.10865 17.9781 5.37314C18.0876 5.63763 18.144 5.92111 18.144 6.20739C18.144 6.49367 18.0876 6.77715 17.9781 7.04164C17.8685 7.30613 17.7079 7.54645 17.5055 7.74888C17.3031 7.95132 17.0627 8.11189 16.7983 8.22145C16.5338 8.33101 16.2503 8.38739 15.964 8.38739C15.3858 8.38739 14.8313 8.15771 14.4225 7.74888C14.0137 7.34006 13.784 6.78556 13.784 6.20739Z" stroke="currentColor" stroke-width="1.25" stroke-miterlimit="10" stroke-linecap="round"/>
</svg>
