<svg width="24" height="25" viewBox="0 0 24 25" fill="none" xmlns="http://www.w3.org/2000/svg">
<path fill-rule="evenodd" clip-rule="evenodd" d="M9 13.8144C9.53043 13.8144 10.0391 14.0251 10.4142 14.4002C10.7893 14.7753 11 15.284 11 15.8144V19.8144C11 20.3448 10.7893 20.8535 10.4142 21.2286C10.0391 21.6037 9.53043 21.8144 9 21.8144H5C4.46957 21.8144 3.96086 21.6037 3.58579 21.2286C3.21071 20.8535 3 20.3448 3 19.8144V15.8144C3 15.284 3.21071 14.7753 3.58579 14.4002C3.96086 14.0251 4.46957 13.8144 5 13.8144H9ZM19 13.8144C19.5304 13.8144 20.0391 14.0251 20.4142 14.4002C20.7893 14.7753 21 15.284 21 15.8144V19.8144C21 20.3448 20.7893 20.8535 20.4142 21.2286C20.0391 21.6037 19.5304 21.8144 19 21.8144H15C14.4696 21.8144 13.9609 21.6037 13.5858 21.2286C13.2107 20.8535 13 20.3448 13 19.8144V15.8144C13 15.284 13.2107 14.7753 13.5858 14.4002C13.9609 14.0251 14.4696 13.8144 15 13.8144H19ZM9 3.81439C9.53043 3.81439 10.0391 4.02511 10.4142 4.40018C10.7893 4.77525 11 5.28396 11 5.81439V9.81439C11 10.3448 10.7893 10.8535 10.4142 11.2286C10.0391 11.6037 9.53043 11.8144 9 11.8144H5C4.46957 11.8144 3.96086 11.6037 3.58579 11.2286C3.21071 10.8535 3 10.3448 3 9.81439V5.81439C3 5.28396 3.21071 4.77525 3.58579 4.40018C3.96086 4.02511 4.46957 3.81439 5 3.81439H9ZM19 3.81439C19.5304 3.81439 20.0391 4.02511 20.4142 4.40018C20.7893 4.77525 21 5.28396 21 5.81439V9.81439C21 10.3448 20.7893 10.8535 20.4142 11.2286C20.0391 11.6037 19.5304 11.8144 19 11.8144H15C14.4696 11.8144 13.9609 11.6037 13.5858 11.2286C13.2107 10.8535 13 10.3448 13 9.81439V5.81439C13 5.28396 13.2107 4.77525 13.5858 4.40018C13.9609 4.02511 14.4696 3.81439 15 3.81439H19Z" fill="currentColor"/>
</svg>
