<svg width="24" height="24" viewBox="0 0 24 24" fill="none" xmlns="http://www.w3.org/2000/svg">
<path fill-rule="evenodd" clip-rule="evenodd" d="M15.9583 12C15.9583 10.9502 15.5413 9.94337 14.799 9.20104C14.0566 8.45871 13.0498 8.04167 12 8.04167C10.9502 8.04167 9.94337 8.45871 9.20104 9.20104C8.4587 9.94337 8.04167 10.9502 8.04167 12C8.04167 13.0498 8.4587 14.0566 9.20104 14.799C9.94337 15.5413 10.9502 15.9583 12 15.9583C13.0498 15.9583 14.0566 15.5413 14.799 14.799C15.5413 14.0566 15.9583 13.0498 15.9583 12ZM7.20833 12C7.20833 11.3922 6.96689 10.8093 6.53712 10.3796C6.10735 9.94978 5.52445 9.70834 4.91667 9.70834C4.30888 9.70834 3.72598 9.94978 3.29621 10.3796C2.86644 10.8093 2.625 11.3922 2.625 12C2.625 12.6078 2.86644 13.1907 3.29621 13.6205C3.72598 14.0502 4.30888 14.2917 4.91667 14.2917C5.52445 14.2917 6.10735 14.0502 6.53712 13.6205C6.96689 13.1907 7.20833 12.6078 7.20833 12ZM19.0833 9.70834C19.6911 9.70834 20.274 9.94978 20.7038 10.3796C21.1336 10.8093 21.375 11.3922 21.375 12C21.375 12.6078 21.1336 13.1907 20.7038 13.6205C20.274 14.0502 19.6911 14.2917 19.0833 14.2917C18.4755 14.2917 17.8927 14.0502 17.4629 13.6205C17.0331 13.1907 16.7917 12.6078 16.7917 12C16.7917 11.3922 17.0331 10.8093 17.4629 10.3796C17.8927 9.94978 18.4755 9.70834 19.0833 9.70834Z" fill="currentColor"/>
</svg>
