<svg width="24" height="25" viewBox="0 0 24 25" fill="none" xmlns="http://www.w3.org/2000/svg">
<path d="M4 18.8144C3.71667 18.8144 3.47934 18.7184 3.288 18.5264C3.09667 18.3344 3.00067 18.0971 3 17.8144C2.99934 17.5317 3.09534 17.2944 3.288 17.1024C3.48067 16.9104 3.718 16.8144 4 16.8144H20C20.2833 16.8144 20.521 16.9104 20.713 17.1024C20.905 17.2944 21.0007 17.5317 21 17.8144C20.9993 18.0971 20.9033 18.3347 20.712 18.5274C20.5207 18.7201 20.2833 18.8157 20 18.8144H4ZM4 13.8144C3.71667 13.8144 3.47934 13.7184 3.288 13.5264C3.09667 13.3344 3.00067 13.0971 3 12.8144C2.99934 12.5317 3.09534 12.2944 3.288 12.1024C3.48067 11.9104 3.718 11.8144 4 11.8144H20C20.2833 11.8144 20.521 11.9104 20.713 12.1024C20.905 12.2944 21.0007 12.5317 21 12.8144C20.9993 13.0971 20.9033 13.3347 20.712 13.5274C20.5207 13.7201 20.2833 13.8157 20 13.8144H4ZM4 8.81439C3.71667 8.81439 3.47934 8.71839 3.288 8.52639C3.09667 8.33439 3.00067 8.09706 3 7.81439C2.99934 7.53173 3.09534 7.29439 3.288 7.10239C3.48067 6.91039 3.718 6.81439 4 6.81439H20C20.2833 6.81439 20.521 6.91039 20.713 7.10239C20.905 7.29439 21.0007 7.53173 21 7.81439C20.9993 8.09706 20.9033 8.33473 20.712 8.52739C20.5207 8.72006 20.2833 8.81573 20 8.81439H4Z" fill="currentColor"/>
</svg>
