<svg width="24" height="25" viewBox="0 0 24 25" fill="none" xmlns="http://www.w3.org/2000/svg">
<path d="M12 15.8144C13.6569 15.8144 15 14.4713 15 12.8144C15 11.1575 13.6569 9.81439 12 9.81439C10.3431 9.81439 9 11.1575 9 12.8144C9 14.4713 10.3431 15.8144 12 15.8144Z" stroke="currentColor" stroke-miterlimit="10" stroke-linecap="round" stroke-linejoin="round"/>
<path d="M2 13.6943V11.9343C2 10.8943 2.85 10.0343 3.9 10.0343C5.71 10.0343 6.45 8.75433 5.54 7.18433C5.02 6.28433 5.33 5.11433 6.24 4.59433L7.97 3.60433C8.76 3.13433 9.78 3.41433 10.25 4.20433L10.36 4.39433C11.26 5.96433 12.74 5.96433 13.65 4.39433L13.76 4.20433C14.23 3.41433 15.25 3.13433 16.04 3.60433L17.77 4.59433C18.68 5.11433 18.99 6.28433 18.47 7.18433C17.56 8.75433 18.3 10.0343 20.11 10.0343C21.15 10.0343 22.01 10.8843 22.01 11.9343V13.6943C22.01 14.7343 21.16 15.5943 20.11 15.5943C18.3 15.5943 17.56 16.8743 18.47 18.4443C18.99 19.3543 18.68 20.5143 17.77 21.0343L16.04 22.0243C15.25 22.4943 14.23 22.2143 13.76 21.4243L13.65 21.2343C12.75 19.6643 11.27 19.6643 10.36 21.2343L10.25 21.4243C9.78 22.2143 8.76 22.4943 7.97 22.0243L6.24 21.0343C5.33 20.5143 5.02 19.3443 5.54 18.4443C6.45 16.8743 5.71 15.5943 3.9 15.5943C2.85 15.5943 2 14.7343 2 13.6943Z" stroke="currentColor" stroke-miterlimit="10" stroke-linecap="round" stroke-linejoin="round"/>
</svg>
