<svg width="24" height="25" viewBox="0 0 24 25" fill="none" xmlns="http://www.w3.org/2000/svg">
<path d="M11.293 3.10739C11.4805 2.91992 11.7348 2.81461 12 2.81461C12.2652 2.81461 12.5195 2.91992 12.707 3.10739L15.707 6.10739C15.8892 6.29599 15.99 6.5486 15.9877 6.81079C15.9854 7.07299 15.8802 7.3238 15.6948 7.50921C15.5094 7.69462 15.2586 7.79979 14.9964 7.80207C14.7342 7.80434 14.4816 7.70355 14.293 7.52139L13 6.22839V15.8144C13 16.0796 12.8946 16.334 12.7071 16.5215C12.5196 16.709 12.2652 16.8144 12 16.8144C11.7348 16.8144 11.4804 16.709 11.2929 16.5215C11.1054 16.334 11 16.0796 11 15.8144V6.22839L9.707 7.52139C9.5184 7.70355 9.2658 7.80434 9.0036 7.80207C8.7414 7.79979 8.49059 7.69462 8.30518 7.50921C8.11977 7.3238 8.0146 7.07299 8.01233 6.81079C8.01005 6.5486 8.11084 6.29599 8.293 6.10739L11.293 3.10739ZM4 11.8144C4 11.284 4.21071 10.7753 4.58579 10.4002C4.96086 10.0251 5.46957 9.81439 6 9.81439H8C8.26522 9.81439 8.51957 9.91975 8.70711 10.1073C8.89464 10.2948 9 10.5492 9 10.8144C9 11.0796 8.89464 11.334 8.70711 11.5215C8.51957 11.709 8.26522 11.8144 8 11.8144H6V20.8144H18V11.8144H16C15.7348 11.8144 15.4804 11.709 15.2929 11.5215C15.1054 11.334 15 11.0796 15 10.8144C15 10.5492 15.1054 10.2948 15.2929 10.1073C15.4804 9.91975 15.7348 9.81439 16 9.81439H18C18.5304 9.81439 19.0391 10.0251 19.4142 10.4002C19.7893 10.7753 20 11.284 20 11.8144V20.8144C20 21.3448 19.7893 21.8535 19.4142 22.2286C19.0391 22.6037 18.5304 22.8144 18 22.8144H6C5.46957 22.8144 4.96086 22.6037 4.58579 22.2286C4.21071 21.8535 4 21.3448 4 20.8144V11.8144Z" fill="currentColor"/>
</svg>
