<svg width="24" height="25" viewBox="0 0 24 25" fill="none" xmlns="http://www.w3.org/2000/svg">
<path d="M16.5 6.81439V7.56439M16.5 10.5644V11.3144M16.5 14.3144V15.0644M16.5 18.0644V18.8144M7.5 13.5644H12.75M7.5 15.8144H10.5M3.375 6.06439C2.754 6.06439 2.25 6.56839 2.25 7.18939V10.2154C2.70675 10.4784 3.08612 10.8571 3.34992 11.3133C3.61371 11.7696 3.7526 12.2874 3.7526 12.8144C3.7526 13.3414 3.61371 13.8592 3.34992 14.3154C3.08612 14.7717 2.70675 15.1504 2.25 15.4134V18.4394C2.25 19.0604 2.754 19.5644 3.375 19.5644H20.625C21.246 19.5644 21.75 19.0604 21.75 18.4394V15.4134C21.2933 15.1504 20.9139 14.7717 20.6501 14.3154C20.3863 13.8592 20.2474 13.3414 20.2474 12.8144C20.2474 12.2874 20.3863 11.7696 20.6501 11.3133C20.9139 10.8571 21.2933 10.4784 21.75 10.2154V7.18939C21.75 6.56839 21.246 6.06439 20.625 6.06439H3.375Z" stroke="#A0A0A0" stroke-width="1.25" stroke-linecap="round" stroke-linejoin="round"/>
</svg>
