<svg width="24" height="25" viewBox="0 0 24 25" fill="none" xmlns="http://www.w3.org/2000/svg">
<path fill-rule="evenodd" clip-rule="evenodd" d="M1.5 7.18939C1.5 6.15339 2.34 5.31439 3.375 5.31439H20.625C21.66 5.31439 22.5 6.15439 22.5 7.18939V10.2154C22.5001 10.3471 22.4655 10.4766 22.3996 10.5907C22.3338 10.7048 22.2391 10.7995 22.125 10.8654C21.7825 11.0626 21.498 11.3466 21.3002 11.6888C21.1024 12.0309 20.9982 12.4192 20.9982 12.8144C20.9982 13.2096 21.1024 13.5979 21.3002 13.94C21.498 14.2822 21.7825 14.5662 22.125 14.7634C22.2391 14.8293 22.3338 14.924 22.3996 15.0381C22.4655 15.1522 22.5001 15.2817 22.5 15.4134V18.4394C22.5 19.4744 21.66 20.3144 20.625 20.3144H3.375C2.87772 20.3144 2.40081 20.1168 2.04918 19.7652C1.69754 19.4136 1.5 18.9367 1.5 18.4394V15.4134C1.49981 15.2818 1.53428 15.1524 1.59993 15.0383C1.66558 14.9242 1.7601 14.8294 1.874 14.7634C2.21651 14.5662 2.50099 14.2822 2.69881 13.94C2.89662 13.5979 3.00077 13.2096 3.00077 12.8144C3.00077 12.4192 2.89662 12.0309 2.69881 11.6888C2.50099 11.3466 2.21651 11.0626 1.874 10.8654C1.7601 10.7994 1.66558 10.7046 1.59993 10.5905C1.53428 10.4764 1.49981 10.347 1.5 10.2154V7.18939ZM16.5 6.06439C16.6989 6.06439 16.8897 6.14341 17.0303 6.28406C17.171 6.42471 17.25 6.61548 17.25 6.81439V7.56439C17.25 7.7633 17.171 7.95407 17.0303 8.09472C16.8897 8.23537 16.6989 8.31439 16.5 8.31439C16.3011 8.31439 16.1103 8.23537 15.9697 8.09472C15.829 7.95407 15.75 7.7633 15.75 7.56439V6.81439C15.75 6.61548 15.829 6.42471 15.9697 6.28406C16.1103 6.14341 16.3011 6.06439 16.5 6.06439ZM17.25 10.5644C17.25 10.3655 17.171 10.1747 17.0303 10.0341C16.8897 9.89341 16.6989 9.81439 16.5 9.81439C16.3011 9.81439 16.1103 9.89341 15.9697 10.0341C15.829 10.1747 15.75 10.3655 15.75 10.5644V11.3144C15.75 11.5133 15.829 11.7041 15.9697 11.8447C16.1103 11.9854 16.3011 12.0644 16.5 12.0644C16.6989 12.0644 16.8897 11.9854 17.0303 11.8447C17.171 11.7041 17.25 11.5133 17.25 11.3144V10.5644ZM16.5 13.5644C16.6989 13.5644 16.8897 13.6434 17.0303 13.7841C17.171 13.9247 17.25 14.1155 17.25 14.3144V15.0644C17.25 15.2633 17.171 15.4541 17.0303 15.5947C16.8897 15.7354 16.6989 15.8144 16.5 15.8144C16.3011 15.8144 16.1103 15.7354 15.9697 15.5947C15.829 15.4541 15.75 15.2633 15.75 15.0644V14.3144C15.75 14.1155 15.829 13.9247 15.9697 13.7841C16.1103 13.6434 16.3011 13.5644 16.5 13.5644ZM17.25 18.0644C17.25 17.8655 17.171 17.6747 17.0303 17.5341C16.8897 17.3934 16.6989 17.3144 16.5 17.3144C16.3011 17.3144 16.1103 17.3934 15.9697 17.5341C15.829 17.6747 15.75 17.8655 15.75 18.0644V18.8144C15.75 19.0133 15.829 19.2041 15.9697 19.3447C16.1103 19.4854 16.3011 19.5644 16.5 19.5644C16.6989 19.5644 16.8897 19.4854 17.0303 19.3447C17.171 19.2041 17.25 19.0133 17.25 18.8144V18.0644ZM6 12.8144C6 12.6155 6.07902 12.4247 6.21967 12.2841C6.36032 12.1434 6.55109 12.0644 6.75 12.0644H12C12.1989 12.0644 12.3897 12.1434 12.5303 12.2841C12.671 12.4247 12.75 12.6155 12.75 12.8144C12.75 13.0133 12.671 13.2041 12.5303 13.3447C12.3897 13.4854 12.1989 13.5644 12 13.5644H6.75C6.55109 13.5644 6.36032 13.4854 6.21967 13.3447C6.07902 13.2041 6 13.0133 6 12.8144ZM6.75 15.0644C6.55109 15.0644 6.36032 15.1434 6.21967 15.2841C6.07902 15.4247 6 15.6155 6 15.8144C6 16.0133 6.07902 16.2041 6.21967 16.3447C6.36032 16.4854 6.55109 16.5644 6.75 16.5644H9.75C9.94891 16.5644 10.1397 16.4854 10.2803 16.3447C10.421 16.2041 10.5 16.0133 10.5 15.8144C10.5 15.6155 10.421 15.4247 10.2803 15.2841C10.1397 15.1434 9.94891 15.0644 9.75 15.0644H6.75Z" fill="#A0A0A0"/>
</svg>
