<svg width="24" height="25" viewBox="0 0 24 25" fill="none" xmlns="http://www.w3.org/2000/svg">
<path fill-rule="evenodd" clip-rule="evenodd" d="M20 12.8144C20 17.2327 16.4183 20.8144 12 20.8144C7.58172 20.8144 4 17.2327 4 12.8144C4 8.39611 7.58172 4.81439 12 4.81439C16.4183 4.81439 20 8.39611 20 12.8144ZM22 12.8144C22 18.3372 17.5228 22.8144 12 22.8144C6.47715 22.8144 2 18.3372 2 12.8144C2 7.29154 6.47715 2.81439 12 2.81439C17.5228 2.81439 22 7.29154 22 12.8144ZM11.2719 9.10471C11.6639 9.49381 11.6662 10.127 11.2771 10.5189L10.035 11.77L16.0014 11.77C16.5536 11.77 17.0014 12.2178 17.0014 12.77C17.0014 13.3223 16.5536 13.77 16.0014 13.77L9.94696 13.77L11.2771 15.1099C11.6662 15.5018 11.6639 16.135 11.2719 16.5241C10.88 16.9132 10.2468 16.9109 9.8577 16.5189L7.5789 14.2234C6.80471 13.4436 6.80471 12.1852 7.5789 11.4053L9.8577 9.10987C10.2468 8.71792 10.88 8.71561 11.2719 9.10471Z" fill="currentColor"/>
</svg>
