<svg width="24" height="25" viewBox="0 0 24 25" fill="none" xmlns="http://www.w3.org/2000/svg">
<path d="M18.251 3.31239C19.0811 3.31234 19.8798 3.62995 20.4832 4.20006C21.0866 4.77018 21.449 5.54959 21.496 6.37839L21.501 6.56239V18.5664C21.501 19.4283 21.1586 20.255 20.5491 20.8645C19.9396 21.474 19.113 21.8164 18.251 21.8164H6.251C5.42069 21.8167 4.62175 21.4992 4.01813 20.9291C3.41452 20.3589 3.05201 19.5794 3.005 18.7504L3 18.5664V6.56239C3 5.70044 3.34241 4.87379 3.9519 4.2643C4.5614 3.6548 5.38805 3.31239 6.25 3.31239H18.251ZM11.5 10.3124L4.5 10.3134V18.5664L4.507 18.7264C4.54691 19.1611 4.74781 19.5651 5.07028 19.8593C5.39275 20.1534 5.81351 20.3165 6.25 20.3164L11.5 20.3154V10.3124ZM20 16.3124L13 16.3134V20.3154H18.25C18.7141 20.3154 19.1592 20.131 19.4874 19.8028C19.8156 19.4746 20 19.0295 20 18.5654V16.3124ZM18.251 4.81239L13 4.81139V14.8144L20 14.8134L20.001 6.56339L19.994 6.40339C19.9541 5.96873 19.7532 5.56468 19.4307 5.27051C19.1082 4.97635 18.6875 4.81331 18.251 4.81339M11.5 4.81139L6.25 4.81239L6.107 4.81839C5.6693 4.85453 5.26119 5.05393 4.96368 5.377C4.66617 5.70008 4.50102 6.1232 4.501 6.56239L4.5 8.81439H11.5V4.81139Z" fill="currentColor"/>
</svg>
