<svg width="24" height="25" viewBox="0 0 24 25" fill="none" xmlns="http://www.w3.org/2000/svg">
<g clip-path="url(#clip0_375_7722)">
<path d="M20.6667 6.14772H14.6667V22.8144H22V7.48105C22 7.12743 21.8595 6.78829 21.6095 6.53824C21.3594 6.2882 21.0203 6.14772 20.6667 6.14772ZM17.3333 17.4811H16V16.1477H17.3333V17.4811ZM17.3333 14.1477H16V12.8144H17.3333V14.1477ZM17.3333 10.8144H16V9.48105H17.3333V10.8144ZM20 17.4811H18.6667V16.1477H20V17.4811ZM20 14.1477H18.6667V12.8144H20V14.1477ZM20 10.8144H18.6667V9.48105H20V10.8144Z" fill="currentColor"/>
<path d="M11.92 2.81439H4.08C3.70516 2.81439 3.34567 2.9633 3.08062 3.22835C2.81557 3.4934 2.66666 3.85289 2.66666 4.22773V22.8144H6V20.8144H10V22.8144H13.3333V4.22773C13.3333 3.85289 13.1844 3.4934 12.9194 3.22835C12.6543 2.9633 12.2948 2.81439 11.92 2.81439ZM6 17.4811H4.66666V16.1477H6V17.4811ZM6 14.1477H4.66666V12.8144H6V14.1477ZM6 10.8144H4.66666V9.48106H6V10.8144ZM6 7.48106H4.66666V6.14773H6V7.48106ZM8.66666 17.4811H7.33333V16.1477H8.66666V17.4811ZM8.66666 14.1477H7.33333V12.8144H8.66666V14.1477ZM8.66666 10.8144H7.33333V9.48106H8.66666V10.8144ZM8.66666 7.48106H7.33333V6.14773H8.66666V7.48106ZM11.3333 17.4811H10V16.1477H11.3333V17.4811ZM11.3333 14.1477H10V12.8144H11.3333V14.1477ZM11.3333 10.8144H10V9.48106H11.3333V10.8144ZM11.3333 7.48106H10V6.14773H11.3333V7.48106Z" fill="currentColor"/>
</g>
<defs>
<clipPath id="clip0_375_7722">
<rect width="24" height="24" fill="white" transform="translate(0 0.814392)"/>
</clipPath>
</defs>
</svg>
