<svg width="24" height="25" viewBox="0 0 24 25" fill="none" xmlns="http://www.w3.org/2000/svg">
<path d="M16.75 12.8144H20.382C20.5524 12.8145 20.7199 12.8581 20.8687 12.9411C21.0175 13.0242 21.1426 13.1438 21.2322 13.2888C21.3218 13.4338 21.3728 13.5992 21.3805 13.7694C21.3881 13.9396 21.3522 14.109 21.276 14.2614L19.242 18.3304C19.1649 18.4846 19.0492 18.6162 18.9062 18.7125C18.7632 18.8088 18.5977 18.8665 18.4259 18.88C18.254 18.8935 18.0816 18.8623 17.9253 18.7895C17.769 18.7166 17.6342 18.6047 17.534 18.4644L15.41 15.4944M2 19.8144H5.76C6.13273 19.817 6.49877 19.7154 6.81682 19.521C7.13487 19.3266 7.39228 19.0473 7.56 18.7144L9 15.8144M2 21.8144V17.8144M7 9.8144H7.01M17.106 9.8674C17.343 9.98605 17.5232 10.1939 17.607 10.4454C17.6909 10.6968 17.6714 10.9713 17.553 11.2084L14.447 17.4194C14.3883 17.5369 14.3069 17.6416 14.2077 17.7277C14.1084 17.8137 13.9932 17.8794 13.8686 17.9209C13.744 17.9624 13.6124 17.979 13.4814 17.9696C13.3504 17.9603 13.2225 17.9252 13.105 17.8664L3.61 13.1144C2.92033 12.767 2.39635 12.1606 2.15272 11.4278C1.90909 10.695 1.96564 9.89558 2.31 9.2044L3.69 6.4144C3.862 6.07162 4.09984 5.76608 4.38994 5.51523C4.68003 5.26438 5.0167 5.07314 5.38072 4.95242C5.74474 4.8317 6.12897 4.78387 6.51147 4.81166C6.89398 4.83946 7.26726 4.94233 7.61 5.1144L17.106 9.8674Z" stroke="currentColor" stroke-width="1.33333" stroke-linecap="round" stroke-linejoin="round"/>
</svg>
