<svg width="24" height="25" viewBox="0 0 24 25" fill="none" xmlns="http://www.w3.org/2000/svg">
<path d="M9.55 15.9644L18.025 7.48939C18.225 7.28939 18.4583 7.18939 18.725 7.18939C18.9917 7.18939 19.225 7.28939 19.425 7.48939C19.625 7.68939 19.725 7.92706 19.725 8.20239C19.725 8.47773 19.625 8.71506 19.425 8.91439L10.25 18.1144C10.05 18.3144 9.81667 18.4144 9.55 18.4144C9.28333 18.4144 9.05 18.3144 8.85 18.1144L4.55 13.8144C4.35 13.6144 4.254 13.3771 4.262 13.1024C4.27 12.8277 4.37433 12.5901 4.575 12.3894C4.77567 12.1887 5.01333 12.0887 5.288 12.0894C5.56267 12.0901 5.8 12.1901 6 12.3894L9.55 15.9644Z" fill="currentColor"/>
</svg>
