<svg width="24" height="25" viewBox="0 0 24 25" fill="none" xmlns="http://www.w3.org/2000/svg">
<path fill-rule="evenodd" clip-rule="evenodd" d="M9 13.8144C9.53043 13.8144 10.0391 14.0251 10.4142 14.4002C10.7893 14.7753 11 15.284 11 15.8144V19.8144C11 20.3448 10.7893 20.8535 10.4142 21.2286C10.0391 21.6037 9.53043 21.8144 9 21.8144H5C4.46957 21.8144 3.96086 21.6037 3.58579 21.2286C3.21071 20.8535 3 20.3448 3 19.8144V15.8144C3 15.284 3.21071 14.7753 3.58579 14.4002C3.96086 14.0251 4.46957 13.8144 5 13.8144H9ZM19 13.8144C19.5046 13.8142 19.9906 14.0048 20.3605 14.3479C20.7305 14.691 20.9572 15.1612 20.995 15.6644L21 15.8144V19.8144C21.0002 20.319 20.8096 20.805 20.4665 21.1749C20.1234 21.5449 19.6532 21.7715 19.15 21.8094L19 21.8144H15C14.4954 21.8146 14.0094 21.624 13.6395 21.2809C13.2695 20.9378 13.0428 20.4675 13.005 19.9644L13 19.8144V15.8144C12.9998 15.3098 13.1904 14.8238 13.5335 14.4538C13.8766 14.0839 14.3468 13.8572 14.85 13.8194L15 13.8144H19ZM9 15.8144H5V19.8144H9V15.8144ZM19 15.8144H15V19.8144H19V15.8144ZM19 3.81439C19.5046 3.81423 19.9906 4.0048 20.3605 4.34789C20.7305 4.69098 20.9572 5.16124 20.995 5.66439L21 5.81439V9.81439C21.0002 10.319 20.8096 10.805 20.4665 11.1749C20.1234 11.5449 19.6532 11.7715 19.15 11.8094L19 11.8144H15C14.4954 11.8146 14.0094 11.624 13.6395 11.2809C13.2695 10.9378 13.0428 10.4675 13.005 9.96439L13 9.81439V5.81439C12.9998 5.30982 13.1904 4.82383 13.5335 4.45384C13.8766 4.08386 14.3468 3.85724 14.85 3.81939L15 3.81439H19ZM9 3.81439C9.50458 3.81423 9.99057 4.0048 10.3605 4.34789C10.7305 4.69098 10.9572 5.16124 10.995 5.66439L11 5.81439V9.81439C11.0002 10.319 10.8096 10.805 10.4665 11.1749C10.1234 11.5449 9.65315 11.7715 9.15 11.8094L9 11.8144H5C4.49542 11.8146 4.00943 11.624 3.63945 11.2809C3.26947 10.9378 3.04284 10.4675 3.005 9.96439L3 9.81439V5.81439C2.99984 5.30982 3.19041 4.82383 3.5335 4.45384C3.87659 4.08386 4.34684 3.85724 4.85 3.81939L5 3.81439H9ZM19 5.81439H15V9.81439H19V5.81439ZM9 5.81439H5V9.81439H9V5.81439Z" fill="currentColor"/>
</svg>
