<svg width="24" height="25" viewBox="0 0 24 25" fill="none" xmlns="http://www.w3.org/2000/svg">
<path d="M12 14.8144C11.1667 14.8144 10.4583 14.5227 9.875 13.9394C9.29167 13.3561 9 12.6477 9 11.8144V5.81439C9 4.98106 9.29167 4.27273 9.875 3.68939C10.4583 3.10606 11.1667 2.81439 12 2.81439C12.8333 2.81439 13.5417 3.10606 14.125 3.68939C14.7083 4.27273 15 4.98106 15 5.81439V11.8144C15 12.6477 14.7083 13.3561 14.125 13.9394C13.5417 14.5227 12.8333 14.8144 12 14.8144ZM11 20.8144V18.7394C9.46667 18.5227 8.15433 17.8727 7.063 16.7894C5.97167 15.7061 5.309 14.3894 5.075 12.8394C5.04167 12.5561 5.11667 12.3144 5.3 12.1144C5.48333 11.9144 5.71667 11.8144 6 11.8144C6.28333 11.8144 6.521 11.9104 6.713 12.1024C6.905 12.2944 7.034 12.5317 7.1 12.8144C7.33333 13.9811 7.91267 14.9394 8.838 15.6894C9.76333 16.4394 10.8173 16.8144 12 16.8144C13.2 16.8144 14.2583 16.4354 15.175 15.6774C16.0917 14.9194 16.6667 13.9651 16.9 12.8144C16.9667 12.5311 17.096 12.2937 17.288 12.1024C17.48 11.9111 17.7173 11.8151 18 11.8144C18.2827 11.8137 18.516 11.9137 18.7 12.1144C18.884 12.3151 18.959 12.5567 18.925 12.8394C18.6917 14.3561 18.0333 15.6644 16.95 16.7644C15.8667 17.8644 14.55 18.5227 13 18.7394V20.8144C13 21.0977 12.904 21.3354 12.712 21.5274C12.52 21.7194 12.2827 21.8151 12 21.8144C11.7173 21.8137 11.48 21.7177 11.288 21.5264C11.096 21.3351 11 21.0977 11 20.8144Z" fill="currentColor"/>
</svg>
