<svg width="24" height="25" viewBox="0 0 24 25" fill="none" xmlns="http://www.w3.org/2000/svg">
<path d="M18 13.8124H13V18.8124C13 19.0776 12.8946 19.332 12.7071 19.5195C12.5196 19.707 12.2652 19.8124 12 19.8124C11.7348 19.8124 11.4804 19.707 11.2929 19.5195C11.1054 19.332 11 19.0776 11 18.8124V13.8124H6C5.73478 13.8124 5.48043 13.707 5.29289 13.5195C5.10536 13.332 5 13.0776 5 12.8124C5 12.5472 5.10536 12.2928 5.29289 12.1053C5.48043 11.9178 5.73478 11.8124 6 11.8124H11V6.81239C11 6.54718 11.1054 6.29282 11.2929 6.10529C11.4804 5.91775 11.7348 5.81239 12 5.81239C12.2652 5.81239 12.5196 5.91775 12.7071 6.10529C12.8946 6.29282 13 6.54718 13 6.81239V11.8124H18C18.2652 11.8124 18.5196 11.9178 18.7071 12.1053C18.8946 12.2928 19 12.5472 19 12.8124C19 13.0776 18.8946 13.332 18.7071 13.5195C18.5196 13.707 18.2652 13.8124 18 13.8124Z" fill="currentColor"/>
</svg>
