<svg width="24" height="25" viewBox="0 0 24 25" fill="none" xmlns="http://www.w3.org/2000/svg">
<path d="M9 15.8144L15 9.81439" stroke="currentColor" stroke-width="1.5" stroke-linecap="round"/>
<path d="M15.5 15.3144C15.5 15.5796 15.3946 15.834 15.2071 16.0215C15.0196 16.209 14.7652 16.3144 14.5 16.3144C14.2348 16.3144 13.9804 16.209 13.7929 16.0215C13.6054 15.834 13.5 15.5796 13.5 15.3144C13.5 15.0492 13.6054 14.7948 13.7929 14.6073C13.9804 14.4197 14.2348 14.3144 14.5 14.3144C14.7652 14.3144 15.0196 14.4197 15.2071 14.6073C15.3946 14.7948 15.5 15.0492 15.5 15.3144ZM10.5 10.3144C10.5 10.5796 10.3946 10.834 10.2071 11.0215C10.0196 11.209 9.76522 11.3144 9.5 11.3144C9.23478 11.3144 8.98043 11.209 8.79289 11.0215C8.60536 10.834 8.5 10.5796 8.5 10.3144C8.5 10.0492 8.60536 9.79482 8.79289 9.60729C8.98043 9.41975 9.23478 9.31439 9.5 9.31439C9.76522 9.31439 10.0196 9.41975 10.2071 9.60729C10.3946 9.79482 10.5 10.0492 10.5 10.3144Z" fill="currentColor"/>
<path d="M14.004 4.81439H9.996C6.218 4.81439 4.33 4.81439 3.156 5.98639C2.276 6.86339 2.056 8.14039 2 10.3084C1.993 10.5864 2.221 10.8084 2.49 10.8794C2.91833 10.9909 3.29755 11.2414 3.56827 11.5916C3.83899 11.9417 3.9859 12.3718 3.986 12.8144C3.986 13.7434 3.352 14.5244 2.492 14.7494C2.222 14.8194 1.994 15.0414 2.002 15.3194C2.057 17.4894 2.278 18.7654 3.156 19.6424M18 4.91439C19.309 5.04239 20.189 5.33139 20.845 5.98639C21.723 6.86339 21.945 8.14039 22 10.3084C22.007 10.5864 21.779 10.8084 21.51 10.8794C21.0817 10.9909 20.7025 11.2414 20.4317 11.5916C20.161 11.9417 20.0141 12.3718 20.014 12.8144C20.014 13.7434 20.648 14.5244 21.508 14.7494C21.778 14.8194 22.006 15.0414 21.998 15.3194C21.943 17.4894 21.722 18.7654 20.844 19.6424C19.67 20.8144 17.782 20.8144 14.004 20.8144H9.996C8.83 20.8144 7.841 20.8144 7 20.7794" stroke="currentColor" stroke-width="1.5" stroke-linecap="round"/>
</svg>
