<svg width="24" height="25" viewBox="0 0 24 25" fill="none" xmlns="http://www.w3.org/2000/svg">
<path fill-rule="evenodd" clip-rule="evenodd" d="M16.42 8.39439C15.6966 7.67052 14.8065 7.13537 13.8279 6.83593C12.8493 6.53649 11.8122 6.48194 10.8076 6.67705C9.80296 6.87217 8.86163 7.31098 8.06627 7.95496C7.27091 8.59893 6.64585 9.42836 6.24599 10.3704L7.65799 9.64739C7.74572 9.60248 7.84143 9.57528 7.93966 9.56736C8.03789 9.55944 8.13672 9.57094 8.23051 9.60121C8.3243 9.63148 8.4112 9.67993 8.48627 9.74379C8.56133 9.80765 8.62308 9.88567 8.66799 9.97339C8.71291 10.0611 8.7401 10.1568 8.74802 10.2551C8.75595 10.3533 8.74444 10.4521 8.71417 10.5459C8.6839 10.6397 8.63545 10.7266 8.57159 10.8017C8.50774 10.8767 8.42972 10.9385 8.34199 10.9834L5.63699 12.3674C5.51386 12.4303 5.37871 12.4663 5.24057 12.4728C5.10244 12.4794 4.96449 12.4564 4.83595 12.4054C4.70741 12.3544 4.59124 12.2765 4.4952 12.177C4.39915 12.0775 4.32544 11.9587 4.27899 11.8284L3.29399 9.06739C3.22716 8.88001 3.2375 8.67376 3.32273 8.49401C3.40797 8.31426 3.56112 8.17572 3.74849 8.10889C3.93587 8.04206 4.14212 8.05239 4.32187 8.13763C4.50163 8.22286 4.64016 8.37601 4.70699 8.56339L5.01999 9.44339C5.63268 8.17579 6.57909 7.09903 7.75759 6.32875C8.93609 5.55848 10.3022 5.12378 11.7091 5.07136C13.116 5.01893 14.5106 5.35075 15.7432 6.03117C16.9758 6.7116 17.9997 7.71494 18.705 8.93343C19.4103 10.1519 19.7704 11.5395 19.7466 12.9472C19.7227 14.3549 19.3159 15.7295 18.5697 16.9234C17.8235 18.1173 16.7662 19.0854 15.5113 19.7237C14.2564 20.362 12.8513 20.6464 11.447 20.5464C11.3487 20.5394 11.2528 20.513 11.1646 20.4689C11.0765 20.4248 10.9979 20.3638 10.9334 20.2893C10.8031 20.1389 10.7378 19.9429 10.752 19.7444C10.7662 19.5459 10.8587 19.3611 11.0091 19.2308C11.1595 19.1005 11.3555 19.0352 11.554 19.0494C12.8253 19.1408 14.0941 18.8414 15.1904 18.1912C16.2867 17.541 17.158 16.5712 17.6875 15.4118C18.2169 14.2525 18.3793 12.9589 18.1527 11.7046C17.9262 10.4503 17.3216 9.29531 16.42 8.39439ZM12 8.17639C12.1989 8.17639 12.3897 8.25541 12.5303 8.39606C12.671 8.53671 12.75 8.72748 12.75 8.92639V12.7344C12.75 12.9844 12.65 13.2254 12.474 13.4024L10.03 15.8444C9.96084 15.9161 9.87811 15.9732 9.78663 16.0126C9.69514 16.0519 9.59674 16.0727 9.49715 16.0736C9.39757 16.0745 9.2988 16.0556 9.20661 16.0179C9.11442 15.9802 9.03066 15.9246 8.96021 15.8542C8.88975 15.7838 8.83402 15.7001 8.79627 15.6079C8.75852 15.5158 8.73949 15.417 8.74031 15.3174C8.74113 15.2179 8.76177 15.1194 8.80104 15.0279C8.8403 14.9364 8.8974 14.8536 8.96899 14.7844L11.249 12.5044V8.92439C11.249 8.72548 11.328 8.53471 11.4687 8.39406C11.6093 8.25341 11.8001 8.17439 11.999 8.17439M6.51999 17.2344C6.66062 17.0939 6.85124 17.0151 7.04999 17.0151C7.24875 17.0151 7.43937 17.0939 7.57999 17.2344C7.84799 17.5011 8.13133 17.7384 8.43 17.9464C8.51076 18.0028 8.57962 18.0745 8.63265 18.1576C8.68568 18.2406 8.72184 18.3332 8.73907 18.4302C8.75629 18.5272 8.75425 18.6266 8.73304 18.7228C8.71184 18.819 8.6719 18.9101 8.6155 18.9909C8.55909 19.0717 8.48733 19.1405 8.40432 19.1935C8.3213 19.2466 8.22865 19.2827 8.13166 19.3C8.03467 19.3172 7.93524 19.3151 7.83904 19.2939C7.74284 19.2727 7.65176 19.2328 7.57099 19.1764C7.19648 18.9136 6.84519 18.6192 6.52099 18.2964C6.45115 18.2267 6.39574 18.144 6.35793 18.0528C6.32012 17.9617 6.30065 17.864 6.30065 17.7654C6.30065 17.6667 6.32012 17.5691 6.35793 17.4779C6.39574 17.3868 6.45015 17.3041 6.51999 17.2344Z" fill="currentColor"/>
</svg>
