<svg width="24" height="24" viewBox="0 0 24 24" fill="none" xmlns="http://www.w3.org/2000/svg">
<path d="M17.293 13.5002C17.4308 13.0121 17.5005 12.5073 17.5 12.0002C17.5 8.96268 15.0375 6.50018 12 6.50018C8.9625 6.50018 6.5 8.96268 6.5 12.0002C6.49952 12.5073 6.56918 13.0121 6.707 13.5002H17.293Z" fill="#D9D9D9"/>
<path d="M17.293 13.5002C17.4308 13.0121 17.5005 12.5073 17.5 12.0002C17.5 8.96268 15.0375 6.50018 12 6.50018C8.9625 6.50018 6.5 8.96268 6.5 12.0002C6.49952 12.5073 6.56918 13.0121 6.707 13.5002H17.293Z" fill="url(#paint0_linear_375_7718)"/>
<path d="M2 13.7502C2 13.5513 2.07902 13.3605 2.21967 13.2199C2.36032 13.0792 2.55109 13.0002 2.75 13.0002H21.25C21.4489 13.0002 21.6397 13.0792 21.7803 13.2199C21.921 13.3605 22 13.5513 22 13.7502C22 13.9491 21.921 14.1399 21.7803 14.2805C21.6397 14.4212 21.4489 14.5002 21.25 14.5002H2.75C2.55109 14.5002 2.36032 14.4212 2.21967 14.2805C2.07902 14.1399 2 13.9491 2 13.7502Z" fill="#C55D5D"/>
<path d="M2 13.7502C2 13.5513 2.07902 13.3605 2.21967 13.2199C2.36032 13.0792 2.55109 13.0002 2.75 13.0002H21.25C21.4489 13.0002 21.6397 13.0792 21.7803 13.2199C21.921 13.3605 22 13.5513 22 13.7502C22 13.9491 21.921 14.1399 21.7803 14.2805C21.6397 14.4212 21.4489 14.5002 21.25 14.5002H2.75C2.55109 14.5002 2.36032 14.4212 2.21967 14.2805C2.07902 14.1399 2 13.9491 2 13.7502Z" fill="url(#paint1_linear_375_7718)"/>
<path d="M6 16.7502C6 16.5513 6.07902 16.3605 6.21967 16.2199C6.36032 16.0792 6.55109 16.0002 6.75 16.0002H17.25C17.4489 16.0002 17.6397 16.0792 17.7803 16.2199C17.921 16.3605 18 16.5513 18 16.7502C18 16.9491 17.921 17.1399 17.7803 17.2805C17.6397 17.4212 17.4489 17.5002 17.25 17.5002H6.75C6.55109 17.5002 6.36032 17.4212 6.21967 17.2805C6.07902 17.1399 6 16.9491 6 16.7502Z" fill="#C55D5D"/>
<path d="M6 16.7502C6 16.5513 6.07902 16.3605 6.21967 16.2199C6.36032 16.0792 6.55109 16.0002 6.75 16.0002H17.25C17.4489 16.0002 17.6397 16.0792 17.7803 16.2199C17.921 16.3605 18 16.5513 18 16.7502C18 16.9491 17.921 17.1399 17.7803 17.2805C17.6397 17.4212 17.4489 17.5002 17.25 17.5002H6.75C6.55109 17.5002 6.36032 17.4212 6.21967 17.2805C6.07902 17.1399 6 16.9491 6 16.7502Z" fill="url(#paint2_linear_375_7718)"/>
<path d="M10 19.7502C10 19.5513 10.079 19.3605 10.2197 19.2199C10.3603 19.0792 10.5511 19.0002 10.75 19.0002H13.25C13.4489 19.0002 13.6397 19.0792 13.7803 19.2199C13.921 19.3605 14 19.5513 14 19.7502C14 19.9491 13.921 20.1399 13.7803 20.2805C13.6397 20.4212 13.4489 20.5002 13.25 20.5002H10.75C10.5511 20.5002 10.3603 20.4212 10.2197 20.2805C10.079 20.1399 10 19.9491 10 19.7502Z" fill="#C55D5D"/>
<path d="M10 19.7502C10 19.5513 10.079 19.3605 10.2197 19.2199C10.3603 19.0792 10.5511 19.0002 10.75 19.0002H13.25C13.4489 19.0002 13.6397 19.0792 13.7803 19.2199C13.921 19.3605 14 19.5513 14 19.7502C14 19.9491 13.921 20.1399 13.7803 20.2805C13.6397 20.4212 13.4489 20.5002 13.25 20.5002H10.75C10.5511 20.5002 10.3603 20.4212 10.2197 20.2805C10.079 20.1399 10 19.9491 10 19.7502Z" fill="url(#paint3_linear_375_7718)"/>
<path d="M12 2.00018C12.1989 2.00018 12.3897 2.0792 12.5303 2.21985C12.671 2.36051 12.75 2.55127 12.75 2.75018V4.50018C12.75 4.6991 12.671 4.88986 12.5303 5.03051C12.3897 5.17117 12.1989 5.25018 12 5.25018C11.8011 5.25018 11.6103 5.17117 11.4697 5.03051C11.329 4.88986 11.25 4.6991 11.25 4.50018V2.75018C11.25 2.55127 11.329 2.36051 11.4697 2.21985C11.6103 2.0792 11.8011 2.00018 12 2.00018Z" fill="#C55D5D"/>
<path d="M12 2.00018C12.1989 2.00018 12.3897 2.0792 12.5303 2.21985C12.671 2.36051 12.75 2.55127 12.75 2.75018V4.50018C12.75 4.6991 12.671 4.88986 12.5303 5.03051C12.3897 5.17117 12.1989 5.25018 12 5.25018C11.8011 5.25018 11.6103 5.17117 11.4697 5.03051C11.329 4.88986 11.25 4.6991 11.25 4.50018V2.75018C11.25 2.55127 11.329 2.36051 11.4697 2.21985C11.6103 2.0792 11.8011 2.00018 12 2.00018Z" fill="url(#paint4_linear_375_7718)"/>
<path d="M4.72 4.72018C4.86062 4.57973 5.05125 4.50084 5.25 4.50084C5.44875 4.50084 5.63937 4.57973 5.78 4.72018L7.03 5.97018C7.16248 6.11235 7.2346 6.3004 7.23117 6.4947C7.22774 6.689 7.14903 6.87439 7.01162 7.0118C6.87421 7.14921 6.68882 7.22793 6.49452 7.23135C6.30022 7.23478 6.11217 7.16266 5.97 7.03018L4.72 5.78018C4.57955 5.63955 4.50066 5.44893 4.50066 5.25018C4.50066 5.05143 4.57955 4.8608 4.72 4.72018Z" fill="#C55D5D"/>
<path d="M4.72 4.72018C4.86062 4.57973 5.05125 4.50084 5.25 4.50084C5.44875 4.50084 5.63937 4.57973 5.78 4.72018L7.03 5.97018C7.16248 6.11235 7.2346 6.3004 7.23117 6.4947C7.22774 6.689 7.14903 6.87439 7.01162 7.0118C6.87421 7.14921 6.68882 7.22793 6.49452 7.23135C6.30022 7.23478 6.11217 7.16266 5.97 7.03018L4.72 5.78018C4.57955 5.63955 4.50066 5.44893 4.50066 5.25018C4.50066 5.05143 4.57955 4.8608 4.72 4.72018Z" fill="url(#paint5_linear_375_7718)"/>
<path d="M18.22 4.72018C18.3622 4.5877 18.5502 4.51558 18.7445 4.51901C18.9388 4.52244 19.1242 4.60115 19.2616 4.73856C19.399 4.87597 19.4777 5.06136 19.4812 5.25566C19.4846 5.44996 19.4125 5.63801 19.28 5.78018L18.03 7.03018C17.8878 7.16266 17.6998 7.23479 17.5055 7.23136C17.3112 7.22793 17.1258 7.14922 16.9884 7.0118C16.851 6.87439 16.7723 6.68901 16.7688 6.4947C16.7654 6.3004 16.8375 6.11236 16.97 5.97018L18.22 4.72018Z" fill="#C55D5D"/>
<path d="M18.22 4.72018C18.3622 4.5877 18.5502 4.51558 18.7445 4.51901C18.9388 4.52244 19.1242 4.60115 19.2616 4.73856C19.399 4.87597 19.4777 5.06136 19.4812 5.25566C19.4846 5.44996 19.4125 5.63801 19.28 5.78018L18.03 7.03018C17.8878 7.16266 17.6998 7.23479 17.5055 7.23136C17.3112 7.22793 17.1258 7.14922 16.9884 7.0118C16.851 6.87439 16.7723 6.68901 16.7688 6.4947C16.7654 6.3004 16.8375 6.11236 16.97 5.97018L18.22 4.72018Z" fill="url(#paint6_linear_375_7718)"/>
<defs>
<linearGradient id="paint0_linear_375_7718" x1="10.31" y1="6.11668" x2="14.0635" y2="14.2517" gradientUnits="userSpaceOnUse">
<stop stop-color="#FFE580"/>
<stop offset="0.273" stop-color="#FFBF70"/>
<stop offset="0.57" stop-color="#FFA342"/>
<stop offset="0.96" stop-color="#FA6673"/>
</linearGradient>
<linearGradient id="paint1_linear_375_7718" x1="0.531" y1="13.0002" x2="22" y2="13.0002" gradientUnits="userSpaceOnUse">
<stop offset="0.061" stop-color="#0FAFFF"/>
<stop offset="1" stop-color="#0094F0"/>
</linearGradient>
<linearGradient id="paint2_linear_375_7718" x1="0.531" y1="13.0002" x2="22" y2="13.0002" gradientUnits="userSpaceOnUse">
<stop offset="0.061" stop-color="#0FAFFF"/>
<stop offset="1" stop-color="#0094F0"/>
</linearGradient>
<linearGradient id="paint3_linear_375_7718" x1="0.531001" y1="13.0002" x2="22" y2="13.0002" gradientUnits="userSpaceOnUse">
<stop offset="0.061" stop-color="#0FAFFF"/>
<stop offset="1" stop-color="#0094F0"/>
</linearGradient>
<linearGradient id="paint4_linear_375_7718" x1="9.6955" y1="1.71268" x2="12.663" y2="12.6527" gradientUnits="userSpaceOnUse">
<stop stop-color="#FFE580"/>
<stop offset="0.273" stop-color="#FFBF70"/>
<stop offset="0.57" stop-color="#FFA342"/>
<stop offset="0.815" stop-color="#FA6673"/>
</linearGradient>
<linearGradient id="paint5_linear_375_7718" x1="9.6955" y1="1.71268" x2="12.663" y2="12.6527" gradientUnits="userSpaceOnUse">
<stop stop-color="#FFE580"/>
<stop offset="0.273" stop-color="#FFBF70"/>
<stop offset="0.57" stop-color="#FFA342"/>
<stop offset="0.815" stop-color="#FA6673"/>
</linearGradient>
<linearGradient id="paint6_linear_375_7718" x1="9.6955" y1="1.71268" x2="12.663" y2="12.6527" gradientUnits="userSpaceOnUse">
<stop stop-color="#FFE580"/>
<stop offset="0.273" stop-color="#FFBF70"/>
<stop offset="0.57" stop-color="#FFA342"/>
<stop offset="0.815" stop-color="#FA6673"/>
</linearGradient>
</defs>
</svg>
