<svg width="24" height="25" viewBox="0 0 24 25" fill="none" xmlns="http://www.w3.org/2000/svg">
<g clip-path="url(#clip0_449_3380)">
<path fill-rule="evenodd" clip-rule="evenodd" d="M15.8851 4.64584C16.76 3.63185 17.3497 2.21957 17.1883 0.814392C15.9275 0.862392 14.4022 1.61977 13.4982 2.63256C12.6864 3.53134 11.9778 4.96747 12.1683 6.34506C13.5747 6.44944 15.0102 5.66101 15.8851 4.64584ZM19.0388 13.5644C19.074 17.1967 22.3636 18.405 22.4 18.4206C22.3733 18.5058 21.8746 20.1423 20.6672 21.8343C19.6224 23.2959 18.5388 24.7516 16.8315 24.7828C15.1546 24.8128 14.6146 23.83 12.6962 23.83C10.7789 23.83 10.1795 24.7514 8.59232 24.8126C6.94447 24.8714 5.68857 23.2313 4.63652 21.7745C2.48388 18.795 0.839678 13.3545 3.04813 9.68256C4.14508 7.85978 6.10477 6.70374 8.23314 6.67494C9.85065 6.64494 11.3784 7.71791 12.3673 7.71791C13.3563 7.71791 15.2128 6.42792 17.164 6.61752C17.9807 6.64992 20.2741 6.93302 21.746 8.99818C21.627 9.06898 19.0097 10.5284 19.0388 13.5644Z" fill="white"/>
</g>
<defs>
<clipPath id="clip0_449_3380">
<rect width="24" height="24" fill="white" transform="translate(0 0.814392)"/>
</clipPath>
</defs>
</svg>
