<svg width="32" height="33" viewBox="0 0 32 33" fill="none" xmlns="http://www.w3.org/2000/svg">
<g clip-path="url(#clip0_401_1280)">
<path fill-rule="evenodd" clip-rule="evenodd" d="M18.5687 5.20456C17.7582 4.95234 16.8962 4.81439 16.0009 4.81439C13.3889 4.81439 11.0514 5.97755 9.49304 7.80484L13.5086 11.1328L18.5686 5.20449L18.5687 5.20456Z" fill="#1A73E8"/>
<path fill-rule="evenodd" clip-rule="evenodd" d="M9.4912 7.80484C8.24966 9.26018 7.5 11.1383 7.5 13.187C7.5 14.7621 7.81866 16.0378 8.34175 17.181L13.5068 11.1328L9.4912 7.80484Z" fill="#EA4335"/>
<path fill-rule="evenodd" clip-rule="evenodd" d="M16.0009 9.98601C17.7969 9.98601 19.2521 11.4195 19.2521 13.1888C19.2521 13.9763 18.9629 14.6986 18.484 15.2556C18.484 15.2556 21.0518 12.247 23.544 9.32908C22.5143 7.37838 20.7294 5.87768 18.5705 5.20448L13.5068 11.1328C14.1036 10.4306 14.9989 9.98601 16.0009 9.98601Z" fill="#4285F4"/>
<path fill-rule="evenodd" clip-rule="evenodd" d="M16.0009 16.3898C14.2049 16.3898 12.7497 14.9562 12.7497 13.187C12.7497 12.4049 13.0352 11.6881 13.5068 11.131L8.34174 17.181C9.22405 19.1099 10.6922 20.6578 12.2045 22.6084L18.4821 15.2556C17.8871 15.9488 16.9955 16.3898 16.0009 16.3898Z" fill="#FBBC04"/>
<path fill-rule="evenodd" clip-rule="evenodd" d="M18.3587 24.6154C21.1936 20.2477 24.5 18.2643 24.5 13.187C24.5 11.7952 24.1537 10.4833 23.544 9.32916L12.2064 22.6085C12.6871 23.2291 13.1716 23.8896 13.6449 24.6173C15.3691 27.2413 14.8901 28.8145 16.0028 28.8145C17.1116 28.8145 16.6345 27.2394 18.3587 24.6154Z" fill="#34A853"/>
</g>
<defs>
<clipPath id="clip0_401_1280">
<rect width="17" height="24" fill="white" transform="translate(7.5 4.81439)"/>
</clipPath>
</defs>
</svg>
