<svg width="20" height="21" viewBox="0 0 20 21" fill="none" xmlns="http://www.w3.org/2000/svg">
<g clip-path="url(#clip0_449_3374)">
<path d="M9.98047 2.68939C11.6932 2.68939 13.2772 3.02272 14.7327 3.68938C16.1881 4.35603 17.3387 5.26256 18.1845 6.40892C19.0302 7.55525 19.4531 8.80568 19.4531 10.1602C19.4531 11.5146 19.0302 12.7668 18.1845 13.9167C17.3387 15.0666 16.1898 15.9749 14.7379 16.6415C13.286 17.3082 11.7002 17.6415 9.98047 17.6415C9.43777 17.6415 8.87742 17.6027 8.29949 17.5251C5.79035 19.2676 4.45477 20.1494 4.29266 20.1706C4.21512 20.1988 4.14109 20.1953 4.07063 20.16C4.04242 20.1388 4.02129 20.1106 4.00719 20.0753C3.99309 20.0401 3.98605 20.0083 3.98605 19.9801V19.9378C4.02836 19.6626 4.34902 18.5163 4.94812 16.4987C3.58784 15.8215 2.50771 14.9238 1.70775 13.8056C0.907793 12.6875 0.507812 11.4723 0.507812 10.1602C0.507812 8.80568 0.930699 7.55525 1.77647 6.40892C2.62225 5.26256 3.77285 4.35603 5.22828 3.68938C6.68371 3.02272 8.26777 2.68939 9.98047 2.68939Z" fill="#191919"/>
</g>
<defs>
<clipPath id="clip0_449_3374">
<rect width="20" height="20" fill="white" transform="translate(0 0.814392)"/>
</clipPath>
</defs>
</svg>
