<svg width="48" height="21" viewBox="0 0 48 21" fill="none" xmlns="http://www.w3.org/2000/svg">
<g clip-path="url(#clip0_401_1274)">
<path fill-rule="evenodd" clip-rule="evenodd" d="M37.9969 20.8144H10.0031C4.479 20.8144 0 16.3368 0 10.8144C0 5.292 4.479 0.814392 10.0031 0.814392H38.0218C43.5459 0.814392 48.0249 5.292 48.0249 10.8144C48.0249 16.3368 43.521 20.8144 37.9969 20.8144Z" fill="#FFEB00"/>
<path fill-rule="evenodd" clip-rule="evenodd" d="M11.2224 5.61539C8.21152 5.61539 5.77295 7.53081 5.77295 9.91887C5.77295 11.4363 6.79317 12.7796 8.31105 13.5507L7.7885 15.491C7.76362 15.5408 7.7885 15.6154 7.83827 15.6651C7.86315 15.69 7.91292 15.7149 7.9378 15.7149C7.96268 15.7149 8.01245 15.69 8.03733 15.69L10.252 14.1975C10.5754 14.2472 10.8989 14.2721 11.2473 14.2721C14.2582 14.2721 16.6967 12.3318 16.6967 9.96862C16.6967 7.53081 14.2582 5.61539 11.2224 5.61539Z" fill="black"/>
<path d="M21.3002 13.501V16.287H19.3095V6.0134H20.703L20.9518 6.66017C21.3748 6.23728 22.0218 5.78952 23.042 5.78952C24.9829 5.78952 25.9036 7.23231 25.9036 9.59549C25.9036 12.0582 24.4852 13.6253 22.4448 13.6253C22.0467 13.6502 21.7481 13.6253 21.3002 13.501ZM21.3002 7.68007V12.1079C21.3997 12.1328 21.6734 12.1577 21.9471 12.1577C23.3655 12.1577 23.9129 11.1627 23.9129 9.59549C23.9129 8.22733 23.5397 7.40644 22.4199 7.40644C22.0218 7.40644 21.6237 7.50594 21.3002 7.68007Z" fill="black"/>
<path d="M30.2084 8.92384H31.3282V8.67508C31.3282 7.85419 30.8554 7.48105 30.0591 7.48105C29.437 7.48105 28.6656 7.65518 28.0187 7.97857L27.4712 6.66016C28.168 6.16265 29.2628 5.83926 30.2333 5.83926C32.1244 5.83926 33.1695 6.83429 33.1695 8.74971V13.4512H31.7761L31.577 12.8293C30.7807 13.4015 30.0342 13.6502 29.3872 13.6502C27.944 13.6502 27.1229 12.7796 27.1229 11.3119C27.1229 9.74474 28.1928 8.92384 30.2084 8.92384ZM31.353 11.5358V10.1676H30.4324C29.4121 10.1676 28.8896 10.5408 28.8896 11.2621C28.8896 11.8094 29.1633 12.083 29.7605 12.083C30.3079 12.1079 31.0047 11.8343 31.353 11.5358Z" fill="black"/>
<path d="M39.1913 12.6801C38.4946 14.5209 37.6734 15.8641 36.4541 16.6104L35.2348 15.491C35.9316 14.8691 36.4541 14.2721 36.8771 13.4761L34.2395 6.28703L36.2053 5.76464L37.8974 11.5855L39.5645 5.73976L41.5054 6.28703L39.1913 12.6801Z" fill="black"/>
</g>
<defs>
<clipPath id="clip0_401_1274">
<rect width="48" height="20" fill="white" transform="translate(0 0.814392)"/>
</clipPath>
</defs>
</svg>
