<svg width="47" height="21" viewBox="0 0 47 21" fill="none" xmlns="http://www.w3.org/2000/svg">
<rect y="0.814392" width="47" height="20" rx="10" fill="#00DE5A"/>
<g clip-path="url(#clip0_401_1275)">
<mask id="mask0_401_1275" style="mask-type:luminance" maskUnits="userSpaceOnUse" x="4" y="4" width="39" height="13">
<path d="M43 4.81439H4V16.8144H43V4.81439Z" fill="white"/>
</mask>
<g mask="url(#mask0_401_1275)">
<path d="M42.2063 7.2009L38.3253 15.8709H36.5281L37.7701 13.1229L34.7868 7.2009H36.6384L38.6211 11.2509L40.4137 7.2009H42.2063ZM33.9072 13.8609H32.187V13.3824C31.6331 13.7998 30.955 14.0211 30.26 14.0109C28.3634 14.0109 26.8755 12.4809 26.8755 10.5309C26.8755 8.5809 28.3634 7.0509 30.26 7.0509C30.955 7.04072 31.6331 7.26196 32.187 7.6794V7.2009H33.9072V13.8609ZM30.4984 8.4909C29.415 8.4909 28.5972 9.3684 28.5972 10.5309C28.5972 11.6934 29.415 12.5709 30.4984 12.5709C31.5818 12.5709 32.3997 11.6934 32.3997 10.5309C32.3997 9.3684 31.5818 8.4909 30.4984 8.4909ZM18.9084 7.2009H20.6286V7.6794C21.183 7.26217 21.8617 7.04096 22.557 7.0509C24.4537 7.0509 25.94 8.5794 25.94 10.5309C25.94 12.4824 24.4537 14.0109 22.557 14.0109C21.8872 14.0209 21.232 13.8157 20.6889 13.4259V15.8709H18.9084V7.2009ZM20.4173 10.5309C20.4173 11.6934 21.2352 12.5709 22.3186 12.5709C23.402 12.5709 24.2198 11.6934 24.2198 10.5309C24.2198 9.3684 23.402 8.4909 22.3186 8.4909C21.2352 8.4909 20.4173 9.3684 20.4173 10.5309Z" fill="black"/>
<path d="M16.0714 10.8144C16.0714 12.0011 15.7175 13.1611 15.0542 14.1478C14.391 15.1345 13.4484 15.9035 12.3455 16.3577C11.2426 16.8118 10.029 16.9306 8.85822 16.6991C7.6874 16.4676 6.61193 15.8962 5.76782 15.057C4.92371 14.2179 4.34887 13.1488 4.11598 11.9849C3.88309 10.8211 4.00262 9.61465 4.45945 8.51828C4.91627 7.42195 5.6899 6.48486 6.68246 5.82557C7.67503 5.16629 8.84197 4.81439 10.0357 4.81439C11.6365 4.81439 13.1717 5.44653 14.3036 6.57175C15.4355 7.69698 16.0714 9.2231 16.0714 10.8144ZM11.2972 7.72439V11.2134L8.8331 7.72439H6.92732V13.9044H8.77576V10.4139L11.2398 13.9044H13.1441V7.72439H11.2972Z" fill="black"/>
</g>
</g>
<defs>
<clipPath id="clip0_401_1275">
<rect width="39" height="12" fill="white" transform="translate(4 4.81439)"/>
</clipPath>
</defs>
</svg>
